<svg width="454" height="342" viewBox="0 0 454 342" fill="none" xmlns="http://www.w3.org/2000/svg">
<g clip-path="url(#clip0_41_3)">
<path opacity="0.24" d="M191.365 341.732C165.781 335.569 141.17 326.555 116.948 316.992C81.0603 302.826 43.6439 285.655 24.584 255.258C10.8583 233.37 8.59408 207.333 8.99703 182.293C9.27845 166.17 10.6216 149.773 17.1327 134.706C29.221 106.712 59.9025 85.7317 93.5836 82.4203C113.027 80.5026 132.944 84.0377 152.132 80.656C206.415 71.067 234.96 11.3981 289.166 1.50228C303.077 -1.05478 317.506 0.0383631 331.564 1.86666C361.977 5.8301 491.93 83.4432 427.21 227.386C416.887 250.336 395.984 268.223 373.522 282.587C355.031 294.413 334.129 303.401 317.365 317.107C308.827 324.081 301.068 332.449 290.202 336.087C283.512 338.337 276.214 338.58 269.063 338.797L210.828 340.594" fill="#54C3E8"/>
<path d="M148.116 159.784V206.572H114.159V241.514H67.3666V206.572H33.436V159.784H67.3666V126.894H114.159V159.784H148.116Z" fill="#54C3E8"/>
<path d="M186.625 296.12L194.493 342L231.525 340.357L232.715 307.819L238.382 340.907L269.658 339.807L280.998 288.078L186.625 296.12Z" fill="#606161"/>
<path d="M186.625 296.12L194.493 342L231.525 340.357L232.715 307.819L238.382 340.907L269.658 339.807L280.998 288.078L186.625 296.12Z" fill="url(#paint0_linear_41_3)"/>
<path d="M203.671 61.4781C203.578 62.5064 203.706 63.5427 204.047 64.5174C204.388 65.4922 204.933 66.3827 205.647 67.1292C205.981 67.5056 206.403 67.7934 206.875 67.9666C209.325 68.7337 209.382 63.7538 208.653 62.3539C207.79 60.7685 203.959 58.2753 203.671 61.4781Z" fill="url(#paint1_linear_41_3)"/>
<path d="M247.342 57.9941C247.467 59.0196 247.371 60.0599 247.061 61.0454C246.751 62.031 246.234 62.9391 245.545 63.7091C245.227 64.1021 244.816 64.4097 244.349 64.6041C241.925 65.4479 241.701 60.4744 242.392 59.0488C243.179 57.3995 246.927 54.8041 247.342 57.9941Z" fill="url(#paint2_linear_41_3)"/>
<path d="M214.883 90.7372C204.055 96.1645 195.944 105.67 188.148 114.927C186.574 116.794 185.871 119.063 185.052 121.358C176.424 145.65 177.972 161.19 175.458 180.905C173.379 197.053 168.634 213.508 172.644 229.31C172.644 229.31 174.563 294.113 178.125 304.328L285.174 300.051C285.174 300.051 275.305 195.41 274.416 182.599C269.997 120.437 257.211 106.936 247.649 98.5234C238.087 90.1107 214.883 90.7372 214.883 90.7372Z" fill="#54C3E8"/>
<path d="M214.883 90.7372C204.055 96.1645 195.944 105.67 188.148 114.927C186.574 116.794 185.871 119.063 185.052 121.358C176.424 145.65 177.972 161.19 175.458 180.905C173.379 197.053 168.634 213.508 172.644 229.311C172.644 229.311 174.563 294.113 178.125 304.328L285.174 300.051C285.174 300.051 275.082 200.576 274.807 187.733C273.649 133.51 259.667 107.326 247.669 98.5234C237.384 90.9929 214.883 90.7372 214.883 90.7372Z" fill="url(#paint3_linear_41_3)"/>
<path d="M227.86 227.418C228.248 227.476 228.644 227.404 228.986 227.214C229.178 227.042 229.329 226.829 229.428 226.591C229.526 226.353 229.57 226.096 229.555 225.839C229.818 221.543 226.952 217.785 225.302 213.815C223.908 210.478 223.345 206.84 222.002 203.478C220.659 200.115 218.266 196.855 214.774 195.896C213.305 195.573 211.798 195.462 210.297 195.564L198.145 195.845C197.81 195.774 197.463 195.786 197.134 195.879C196.804 195.972 196.503 196.145 196.255 196.381C196.007 196.617 195.821 196.91 195.712 197.234C195.604 197.559 195.576 197.905 195.631 198.242C195.331 201.381 193.073 208.765 195.1 211.539C196.009 212.817 198.439 213.233 199.795 213.872C201.757 214.827 203.662 215.894 205.5 217.069C212.177 221.224 219.507 227.418 227.86 227.418Z" fill="url(#paint4_linear_41_3)"/>
<path d="M245.628 197.405C239.872 200.371 237.723 207.326 235.004 213.214C233.43 216.624 231.5 219.86 229.248 222.867C228.564 223.781 227.809 224.823 227.969 225.948C228.107 226.519 228.42 227.032 228.863 227.417C229.307 227.802 229.859 228.039 230.444 228.096C231.614 228.184 232.789 227.996 233.872 227.546C239.533 225.617 244.809 222.706 249.459 218.948C252.504 216.487 255.369 213.604 259.053 212.274C260.492 211.756 262.155 211.398 263.019 210.133C263.463 209.35 263.72 208.474 263.767 207.576C264.081 205.134 264.407 202.647 263.933 200.23C263.14 196.082 261.324 194.924 257.627 195.199C253.693 195.487 249.21 195.557 245.628 197.405Z" fill="url(#paint5_linear_41_3)"/>
<path d="M212.075 97.8074C212.075 97.8074 224.688 109.385 231.416 101.355C238.145 93.3262 237.333 96.3307 237.333 96.3307L233.828 171.764L212.075 97.8074Z" fill="#606161"/>
<path d="M228.033 19.651C225.691 16.8797 222.358 15.1337 218.746 14.7862C215.247 14.4729 211.403 15.7515 209.549 18.7304C208.199 20.8912 208.065 23.5761 208.058 26.1267C208.058 28.5048 208.142 30.9787 209.254 33.0819C210.431 35.1333 212.309 36.6907 214.544 37.4673C219.661 39.3851 225.718 37.659 229.613 33.9577C233.508 30.2564 231.173 23.3715 228.033 19.651Z" fill="#606161"/>
<path d="M228.033 19.651C225.691 16.8797 222.358 15.1337 218.746 14.7862C215.247 14.4729 211.403 15.7515 209.549 18.7304C208.199 20.8912 208.065 23.5761 208.058 26.1267C208.058 28.5048 208.142 30.9787 209.254 33.0819C210.431 35.1333 212.309 36.6907 214.544 37.4673C219.661 39.3851 225.718 37.659 229.613 33.9577C233.508 30.2564 231.173 23.3715 228.033 19.651Z" fill="url(#paint6_linear_41_3)"/>
<path d="M216.571 75.1839C216.571 75.1839 216.687 91.4531 213.034 94.9371C209.382 98.4211 228.193 114.115 235.759 96.1453C235.759 96.1453 231.065 88.5125 232.427 75.4971C233.789 62.4817 216.571 75.1839 216.571 75.1839Z" fill="url(#paint7_linear_41_3)"/>
<path d="M216.06 79.045L216.117 82.6121C216.117 82.6121 225.762 96.0367 229.549 91.3892C233.335 86.7418 232.171 85.7829 232.171 85.7829L232.453 75.4716L216.06 79.045Z" fill="url(#paint8_linear_41_3)"/>
<path d="M207.201 52.0681C207.201 52.0681 204.886 76.9418 218.247 81.6532C231.608 86.3646 239.418 79.1729 242.865 67.1227C246.313 55.0726 240.358 30.9787 226.236 33.5614C212.113 36.144 207.201 52.0681 207.201 52.0681Z" fill="url(#paint9_linear_41_3)"/>
<path d="M205.206 60.4424C204.578 59.5962 204.169 58.608 204.016 57.5657C203.079 52.9199 203.378 48.1097 204.882 43.6151C206.386 39.1205 209.042 35.0985 212.587 31.9504C214.026 30.6401 215.702 29.616 217.524 28.9331C219.357 28.3884 221.271 28.172 223.178 28.2938C229.133 28.4728 235.107 30.3203 239.808 33.9833C244.509 37.6463 247.803 43.1951 248.187 49.1339C248.373 50.8979 248.113 52.6804 247.432 54.3183C247.084 55.1308 246.55 55.8505 245.874 56.42C245.197 56.9894 244.397 57.3928 243.537 57.5977C240.473 58.1794 239.584 55.3667 237.077 53.5128C233.297 50.732 232.037 46.532 223.556 47.3759C209.715 48.7631 209.005 64.9237 205.206 60.4424Z" fill="#606161"/>
<path d="M202.462 99.4631C202.462 99.4631 156.718 132.309 155.771 192.917C155.215 228.038 194.787 221.416 196.066 220.54C197.345 219.664 200.716 189.631 200.716 189.631C200.716 189.631 186.581 189.855 184.822 187.317C183.063 184.779 202.462 99.4631 202.462 99.4631Z" fill="#54C3E8"/>
<path d="M202.462 99.4631C202.462 99.4631 156.718 132.309 155.771 192.917C155.215 228.038 194.787 221.416 196.066 220.54C197.345 219.664 200.716 189.631 200.716 189.631C200.716 189.631 186.581 189.855 184.822 187.317C183.063 184.779 202.462 99.4631 202.462 99.4631Z" fill="url(#paint10_linear_41_3)"/>
<path d="M251.218 99.4631C251.218 99.4631 296.969 132.309 297.909 192.917C298.465 228.038 258.893 221.416 257.614 220.54C256.335 219.664 252.971 189.631 252.971 189.631C252.971 189.631 267.106 189.855 268.858 187.317C270.611 184.779 251.218 99.4631 251.218 99.4631Z" fill="#54C3E8"/>
<path d="M251.218 99.4631C251.218 99.4631 296.969 132.309 297.909 192.917C298.465 228.038 258.893 221.416 257.614 220.54C256.335 219.664 252.971 189.631 252.971 189.631C252.971 189.631 267.106 189.855 268.858 187.317C270.611 184.779 251.218 99.4631 251.218 99.4631Z" fill="url(#paint11_linear_41_3)"/>
<path d="M257.205 109.698C257.051 109.697 256.902 109.649 256.777 109.559C256.652 109.47 256.558 109.344 256.508 109.199C253.559 100.358 242.047 95.2887 241.931 95.212C241.843 95.1745 241.763 95.1197 241.696 95.051C241.629 94.9823 241.577 94.9009 241.542 94.8116C241.506 94.7224 241.489 94.627 241.492 94.5311C241.494 94.4352 241.515 94.3407 241.554 94.2531C241.631 94.076 241.775 93.9364 241.955 93.8646C242.135 93.7928 242.335 93.7946 242.513 93.8695C243.012 94.0869 254.743 99.2713 257.902 108.739C257.961 108.924 257.945 109.124 257.858 109.298C257.771 109.471 257.619 109.603 257.435 109.666C257.361 109.689 257.283 109.7 257.205 109.698Z" fill="#54C3E8"/>
<path d="M257.205 109.698C257.051 109.697 256.902 109.649 256.777 109.559C256.652 109.47 256.558 109.344 256.508 109.199C253.559 100.358 242.047 95.2887 241.931 95.212C241.843 95.1745 241.763 95.1197 241.696 95.051C241.629 94.9823 241.577 94.9009 241.542 94.8116C241.506 94.7224 241.489 94.627 241.492 94.5311C241.494 94.4352 241.515 94.3407 241.554 94.2531C241.631 94.076 241.775 93.9364 241.955 93.8646C242.135 93.7928 242.335 93.7946 242.513 93.8695C243.012 94.0869 254.743 99.2713 257.902 108.739C257.961 108.924 257.945 109.124 257.858 109.298C257.771 109.471 257.619 109.603 257.435 109.666C257.361 109.689 257.283 109.7 257.205 109.698Z" fill="url(#paint12_linear_41_3)"/>
<path d="M211.947 159.605C192.587 131.887 206.958 98.9581 207.029 98.875C207.133 98.722 207.181 98.5372 207.163 98.3527C207.146 98.1681 207.064 97.9956 206.933 97.865C206.877 97.8001 206.808 97.7481 206.73 97.7124C206.652 97.6767 206.567 97.6582 206.482 97.6582C206.396 97.6582 206.311 97.6767 206.234 97.7124C206.156 97.7481 206.087 97.8001 206.031 97.865C205.737 98.2358 190.681 131.906 210.681 159.675C210.911 159.982 212.126 159.854 211.947 159.605Z" fill="#54C3E8"/>
<path d="M215.26 91.3317C215.26 91.3317 210.47 95.5508 215.49 105.747C220.511 115.943 234.288 173.675 234.288 173.675L207.905 131.727L210.508 115.694L205.014 111.5C205.014 111.5 204.771 96.3755 207.572 93.1856C210.374 89.9956 213.444 90.1746 215.26 91.3317Z" fill="#54C3E8"/>
<path d="M233.15 89.1199C233.15 89.1199 240.889 90.9226 242.232 94.5408C243.575 98.1591 249.082 108.777 249.082 108.777L245.731 113.54L251.186 119.664L234.269 173.675C234.269 173.675 237.672 100.799 235.74 96.1454C233.808 91.4915 233.15 89.1199 233.15 89.1199Z" fill="#54C3E8"/>
<path d="M215.26 91.3317C215.26 91.3317 210.47 95.5508 215.49 105.747C220.511 115.943 234.288 173.675 234.288 173.675L207.905 131.727L210.508 115.694L205.014 111.5C205.014 111.5 204.771 96.3755 207.572 93.1856C210.374 89.9956 213.444 90.1746 215.26 91.3317Z" fill="url(#paint13_linear_41_3)"/>
<path d="M234.429 170.345C235.068 156.012 237.467 100.192 235.753 96.139C233.834 91.4659 233.143 89.1071 233.143 89.1071C233.163 89.1307 233.19 89.1465 233.22 89.1518C234.077 89.3436 240.972 91.1335 242.219 94.5216C243.588 98.1463 249.12 108.739 249.12 108.739L245.769 113.533L251.186 119.651L234.269 173.675C234.269 173.675 234.307 172.486 234.429 170.345Z" fill="url(#paint14_linear_41_3)"/>
<path d="M244.899 59.8096C245.062 59.6558 245.192 59.4711 245.283 59.2662C245.333 59.0329 245.361 58.7953 245.366 58.5566C245.389 58.3112 245.503 58.0833 245.686 57.9174C245.771 57.8396 245.875 57.7861 245.987 57.7624C246.1 57.7388 246.217 57.7459 246.325 57.7831C246.422 57.8264 246.509 57.8898 246.58 57.9692C246.65 58.0486 246.703 58.142 246.735 58.2434C246.802 58.4498 246.837 58.6655 246.837 58.8827C246.935 59.698 246.825 60.5249 246.517 61.2863C246.223 61.8108 245.843 62.282 245.392 62.6799C245.233 62.8781 245.004 63.0065 244.752 63.0379C244.589 63.0255 244.433 62.9704 244.298 62.8781C244.238 62.8508 244.185 62.8091 244.144 62.7566C244.116 62.7009 244.098 62.6401 244.093 62.5776C243.988 62.0157 243.988 61.4391 244.093 60.8772C244.248 60.4483 244.529 60.0762 244.899 59.8096Z" fill="url(#paint15_linear_41_3)"/>
<path d="M206.46 63.0954C206.29 62.952 206.155 62.773 206.063 62.5712C206.001 62.3393 205.964 62.1014 205.954 61.8616C205.924 61.6142 205.803 61.3867 205.615 61.2223C205.523 61.1468 205.412 61.0964 205.295 61.0763C205.177 61.0561 205.056 61.0668 204.944 61.1073C204.849 61.1547 204.764 61.2212 204.696 61.3026C204.628 61.3839 204.577 61.4785 204.547 61.5803C204.492 61.7889 204.467 62.004 204.47 62.2196C204.394 63.0388 204.529 63.8639 204.861 64.6168C205.174 65.1311 205.572 65.5891 206.037 65.9721C206.199 66.1626 206.428 66.2838 206.677 66.3109C206.839 66.293 206.993 66.2335 207.125 66.1383C207.186 66.1102 207.239 66.066 207.278 66.0104C207.306 65.9524 207.321 65.8892 207.323 65.825C207.4 65.2603 207.374 64.6864 207.246 64.131C207.089 63.7172 206.816 63.3576 206.46 63.0954Z" fill="url(#paint16_linear_41_3)"/>
<path d="M234.429 170.345C235.068 156.012 237.467 100.192 235.753 96.139C233.834 91.4659 233.143 89.1071 233.143 89.1071C233.163 89.1307 233.19 89.1465 233.22 89.1518C233.764 89.6568 237.352 92.9299 238.247 95.2248C239.143 97.5198 240.428 153.826 234.429 170.345Z" fill="url(#paint17_linear_41_3)"/>
<path d="M193.751 171.419C193.751 171.419 199.462 155.022 214.563 157.163C229.664 159.305 232.293 169.207 232.293 169.207C232.293 169.207 236.335 150.834 257.039 158.486C277.742 166.138 261.72 190.833 259.309 192.476C256.898 194.119 230.124 219.907 230.124 219.907C230.124 219.907 196.533 190.827 194.627 187.822C192.721 184.818 190.777 179.173 193.751 171.419Z" fill="#54C3E8"/>
<path d="M199.277 172.179C199.277 172.179 204.253 155.91 217.147 157.93C230.041 159.95 232.216 169.75 232.216 169.75C232.216 169.75 239.098 151.78 257.039 158.486C278.069 166.343 261.382 190.833 259.309 192.476C257.237 194.119 230.054 219.964 230.054 219.964C230.054 219.964 201.535 191.377 199.923 188.41C198.311 185.444 196.686 179.876 199.277 172.179Z" fill="url(#paint18_linear_41_3)"/>
<path d="M197.153 171.093C198.867 166.183 203.018 161.689 208.212 161.389C208.552 161.345 208.898 161.398 209.21 161.542C209.406 161.688 209.571 161.873 209.693 162.085C209.815 162.297 209.892 162.533 209.919 162.776C210.642 166.177 208.871 169.552 208.263 172.972C207.086 179.601 210.29 186.115 212.951 192.297C213.393 193.307 213.783 194.579 213.073 195.423C212.811 195.671 212.502 195.864 212.165 195.992C211.828 196.121 211.47 196.181 211.109 196.171C198.938 197.021 193.821 180.643 197.153 171.093Z" fill="url(#paint19_linear_41_3)"/>
<path d="M229.306 203.491L222.628 181.749L218.631 190.124L197.511 190.788L194.083 187.221L216.079 186.422L223.415 171.042L229.542 190.974L234.832 175.791L238.791 184.274L243.716 171.873L248.398 186.652L263.211 186.672L261.017 190.514L245.564 190.629L243.3 183.475L239.079 194.1L235.356 186.135L229.306 203.491Z" fill="white"/>
<path d="M259.795 152.273C259.211 152.275 258.634 152.146 258.107 151.896C256.655 151.199 255.715 149.633 255.299 147.235C254.525 142.76 251.903 111.692 255.798 108.368C256.083 108.105 256.433 107.923 256.811 107.84C257.19 107.757 257.584 107.776 257.953 107.895C261.215 108.911 264.061 118.846 264.854 121.863L270.828 145.477C270.924 147.191 270.342 150.093 267.694 150.4L267.438 148.226C268.718 148.073 268.666 145.816 268.666 145.791L262.725 122.413C261.049 116.02 258.446 110.12 257.269 109.985C254.851 112.057 256.169 139.392 257.454 146.865C257.736 148.495 258.286 149.556 259.053 149.92C259.684 150.131 260.373 150.087 260.972 149.799L262.027 151.717C261.335 152.069 260.572 152.259 259.795 152.273Z" fill="#54C3E8"/>
<path d="M259.795 152.273C259.211 152.275 258.634 152.146 258.107 151.896C256.655 151.199 255.715 149.633 255.299 147.235C254.525 142.76 251.903 111.692 255.798 108.368C256.083 108.105 256.433 107.923 256.811 107.84C257.19 107.757 257.584 107.776 257.953 107.895C261.215 108.911 264.061 118.846 264.854 121.863L270.828 145.477C270.924 147.191 270.342 150.093 267.694 150.4L267.438 148.226C268.718 148.073 268.666 145.816 268.666 145.791L262.725 122.413C261.049 116.02 258.446 110.12 257.269 109.985C254.851 112.057 256.169 139.392 257.454 146.865C257.736 148.495 258.286 149.556 259.053 149.92C259.684 150.131 260.373 150.087 260.972 149.799L262.027 151.717C261.335 152.069 260.572 152.259 259.795 152.273Z" fill="url(#paint20_linear_41_3)"/>
</g>
<defs>
<linearGradient id="paint0_linear_41_3" x1="186.625" y1="315.042" x2="280.998" y2="315.042" gradientUnits="userSpaceOnUse">
<stop offset="0.12" stop-color="#010101" stop-opacity="0"/>
<stop offset="0.95" stop-color="#010101"/>
</linearGradient>
<linearGradient id="paint1_linear_41_3" x1="203.653" y1="64.0148" x2="209.032" y2="63.9283" gradientUnits="userSpaceOnUse">
<stop stop-color="#E5C6D6"/>
<stop offset="0.42" stop-color="#EAD4D0"/>
<stop offset="1" stop-color="#F0E9CB"/>
</linearGradient>
<linearGradient id="paint2_linear_41_3" x1="4174.65" y1="1194.99" x2="4129.66" y2="1195.89" gradientUnits="userSpaceOnUse">
<stop stop-color="#E5C6D6"/>
<stop offset="0.42" stop-color="#EAD4D0"/>
<stop offset="1" stop-color="#F0E9CB"/>
</linearGradient>
<linearGradient id="paint3_linear_41_3" x1="232.76" y1="349.837" x2="219.604" y2="92.1045" gradientUnits="userSpaceOnUse">
<stop stop-color="white" stop-opacity="0"/>
<stop offset="0.95" stop-color="white"/>
</linearGradient>
<linearGradient id="paint4_linear_41_3" x1="10710.8" y1="12584.5" x2="12070.8" y2="11736.4" gradientUnits="userSpaceOnUse">
<stop stop-color="#E5C6D6"/>
<stop offset="0.42" stop-color="#EAD4D0"/>
<stop offset="1" stop-color="#F0E9CB"/>
</linearGradient>
<linearGradient id="paint5_linear_41_3" x1="14563.7" y1="13015" x2="13226.5" y2="12150.7" gradientUnits="userSpaceOnUse">
<stop stop-color="#E5C6D6"/>
<stop offset="0.42" stop-color="#EAD4D0"/>
<stop offset="1" stop-color="#F0E9CB"/>
</linearGradient>
<linearGradient id="paint6_linear_41_3" x1="216.666" y1="20.3239" x2="222.135" y2="34.1566" gradientUnits="userSpaceOnUse">
<stop stop-color="#010101" stop-opacity="0"/>
<stop offset="0.95" stop-color="#010101"/>
</linearGradient>
<linearGradient id="paint7_linear_41_3" x1="7987.31" y1="6721.91" x2="8828.18" y2="6721.91" gradientUnits="userSpaceOnUse">
<stop stop-color="#E5C6D6"/>
<stop offset="0.42" stop-color="#EAD4D0"/>
<stop offset="1" stop-color="#F0E9CB"/>
</linearGradient>
<linearGradient id="paint8_linear_41_3" x1="5994.89" y1="3407.97" x2="6263.27" y2="2009.29" gradientUnits="userSpaceOnUse">
<stop offset="0.12" stop-color="#010101" stop-opacity="0"/>
<stop offset="0.95" stop-color="#010101"/>
</linearGradient>
<linearGradient id="paint9_linear_41_3" x1="12255" y1="7247.05" x2="14366.5" y2="7247.05" gradientUnits="userSpaceOnUse">
<stop stop-color="#E5C6D6"/>
<stop offset="0.42" stop-color="#EAD4D0"/>
<stop offset="1" stop-color="#F0E9CB"/>
</linearGradient>
<linearGradient id="paint10_linear_41_3" x1="130.51" y1="154.205" x2="196.599" y2="160.862" gradientUnits="userSpaceOnUse">
<stop offset="0.52" stop-color="white" stop-opacity="0.52"/>
<stop offset="0.95" stop-color="white"/>
</linearGradient>
<linearGradient id="paint11_linear_41_3" x1="23305.2" y1="35546.6" x2="18916.7" y2="35628.3" gradientUnits="userSpaceOnUse">
<stop offset="0.52" stop-color="white" stop-opacity="0.52"/>
<stop offset="0.95" stop-color="white"/>
</linearGradient>
<linearGradient id="paint12_linear_41_3" x1="6519.5" y1="3291.18" x2="6258.87" y2="3471.89" gradientUnits="userSpaceOnUse">
<stop offset="0.12" stop-color="#010101" stop-opacity="0"/>
<stop offset="0.95" stop-color="#010101"/>
</linearGradient>
<linearGradient id="paint13_linear_41_3" x1="9821.24" y1="22529.8" x2="10765.1" y2="22403.5" gradientUnits="userSpaceOnUse">
<stop stop-color="white" stop-opacity="0"/>
<stop offset="0.95" stop-color="white"/>
</linearGradient>
<linearGradient id="paint14_linear_41_3" x1="259.571" y1="130.18" x2="230.77" y2="131.556" gradientUnits="userSpaceOnUse">
<stop stop-color="white" stop-opacity="0"/>
<stop offset="0.11" stop-color="white" stop-opacity="0.18"/>
<stop offset="0.29" stop-color="white" stop-opacity="0.42"/>
<stop offset="0.45" stop-color="white" stop-opacity="0.63"/>
<stop offset="0.6" stop-color="white" stop-opacity="0.79"/>
<stop offset="0.74" stop-color="white" stop-opacity="0.9"/>
<stop offset="0.86" stop-color="white" stop-opacity="0.98"/>
<stop offset="0.95" stop-color="white"/>
</linearGradient>
<linearGradient id="paint15_linear_41_3" x1="1362.05" y1="823.543" x2="1311.86" y2="818.734" gradientUnits="userSpaceOnUse">
<stop offset="0.12" stop-color="#010101" stop-opacity="0"/>
<stop offset="0.95" stop-color="#010101"/>
</linearGradient>
<linearGradient id="paint16_linear_41_3" x1="1898.8" y1="825.029" x2="1949.81" y2="818.113" gradientUnits="userSpaceOnUse">
<stop offset="0.12" stop-color="#010101" stop-opacity="0"/>
<stop offset="0.95" stop-color="#010101"/>
</linearGradient>
<linearGradient id="paint17_linear_41_3" x1="2100.82" y1="21124.8" x2="2359.94" y2="21118.5" gradientUnits="userSpaceOnUse">
<stop stop-color="white" stop-opacity="0"/>
<stop offset="0.95" stop-color="white"/>
</linearGradient>
<linearGradient id="paint18_linear_41_3" x1="22853.4" y1="17891.9" x2="31585.1" y2="31682" gradientUnits="userSpaceOnUse">
<stop offset="0.12" stop-color="#010101" stop-opacity="0"/>
<stop offset="0.95" stop-color="#010101"/>
</linearGradient>
<linearGradient id="paint19_linear_41_3" x1="5144.3" y1="11305.2" x2="6533.4" y2="11391.1" gradientUnits="userSpaceOnUse">
<stop stop-color="white" stop-opacity="0"/>
<stop offset="0.95" stop-color="white"/>
</linearGradient>
<linearGradient id="paint20_linear_41_3" x1="6400.5" y1="10894.6" x2="8734.61" y2="11024.2" gradientUnits="userSpaceOnUse">
<stop offset="0.12" stop-color="#010101" stop-opacity="0"/>
<stop offset="0.95" stop-color="#010101"/>
</linearGradient>
<clipPath id="clip0_41_3">
<rect width="454" height="342" fill="white"/>
</clipPath>
</defs>
</svg>
