<svg width="376" height="350" viewBox="0 0 376 350" fill="none" xmlns="http://www.w3.org/2000/svg">
<g filter="url(#filter0_d_31_357)">
<path opacity="0.45" d="M187.561 342C288.939 342 371.122 333.375 371.122 322.736C371.122 312.097 288.939 303.473 187.561 303.473C86.1832 303.473 4 312.097 4 322.736C4 333.375 86.1832 342 187.561 342Z" fill="#E6E6E6"/>
<path d="M305.348 69.5564V315.083H73.0026V0H236.373" fill="#E6E6E6"/>
<path d="M236.374 0V69.5564H305.348L236.374 0Z" fill="#24285B"/>
<path d="M197.173 67.7784H175.76V131.336H197.173V67.7784Z" fill="#54C3E8"/>
<path d="M215.686 111.191V87.908H157.233V111.191H215.686Z" fill="#54C3E8"/>
<path opacity="0.13" d="M142.702 20.6086H91.5151V51.7923H142.702V20.6086Z" fill="black"/>
<path opacity="0.33" d="M274.849 152.44H104.952V250.861H274.849V152.44Z" fill="white"/>
<path d="M305.831 279.493H351.686C354.046 279.493 356.31 280.513 357.98 282.328C359.649 284.143 360.587 286.605 360.587 289.172V314.913H305.845V279.493H305.831Z" fill="#FFD200"/>
<path d="M316.694 186.793H238.549V314.944H316.694V186.793Z" fill="#54C3E8"/>
<path d="M318.414 174.486H236.828C232.007 174.486 228.098 178.736 228.098 183.979V197.445C228.098 202.688 232.007 206.938 236.828 206.938H318.414C323.236 206.938 327.145 202.688 327.145 197.445V183.979C327.145 178.736 323.236 174.486 318.414 174.486Z" fill="#54C3E8"/>
<path opacity="0.13" d="M318.414 174.486H236.828C232.007 174.486 228.098 178.736 228.098 183.979V197.445C228.098 202.688 232.007 206.938 236.828 206.938H318.414C323.236 206.938 327.145 202.688 327.145 197.445V183.979C327.145 178.736 323.236 174.486 318.414 174.486Z" fill="black"/>
<path opacity="0.46" d="M316.694 234.055H238.549V288.584H316.694V234.055Z" fill="white"/>
<path opacity="0.08" d="M258.91 275.443C258.91 275.443 286.949 279.262 260.844 314.913H238.549L244.834 279.478L258.91 275.443Z" fill="black"/>
<path d="M252.193 267.042L254.626 268.642C256.727 270.024 258.237 272.256 258.823 274.848C259.41 277.44 259.026 280.179 257.755 282.463L249.572 297.173L231.323 285.17L239.507 270.46C240.775 268.181 242.822 266.541 245.2 265.9C247.578 265.259 250.093 265.67 252.193 267.042Z" fill="#24285B"/>
<path d="M231.288 285.156L249.537 297.159L241.354 311.869C240.083 314.153 238.03 315.795 235.647 316.433C233.263 317.071 230.744 316.653 228.643 315.272L226.21 313.671C224.109 312.29 222.6 310.057 222.013 307.465C221.426 304.873 221.81 302.134 223.081 299.85L231.264 285.14L231.288 285.156Z" fill="#54C3E8"/>
<path d="M227.579 267.043L230.012 268.643C232.113 270.025 233.623 272.257 234.209 274.849C234.796 277.441 234.412 280.18 233.142 282.464L224.958 297.174L206.709 285.171L214.893 270.461C216.161 268.182 218.208 266.542 220.586 265.901C222.964 265.26 225.479 265.671 227.579 267.043Z" fill="#24285B"/>
<path d="M206.687 285.165L224.936 297.168L216.752 311.878C215.482 314.162 213.429 315.804 211.045 316.442C208.661 317.08 206.142 316.662 204.041 315.281L201.608 313.68C199.508 312.299 197.998 310.066 197.411 307.474C196.824 304.882 197.209 302.143 198.479 299.859L206.663 285.149L206.687 285.165Z" fill="#54C3E8"/>
<path d="M163.034 269.027H104.952V288.584H163.034V269.027Z" fill="white"/>
</g>
<defs>
<filter id="filter0_d_31_357" x="0" y="0" width="375.123" height="350" filterUnits="userSpaceOnUse" color-interpolation-filters="sRGB">
<feFlood flood-opacity="0" result="BackgroundImageFix"/>
<feColorMatrix in="SourceAlpha" type="matrix" values="0 0 0 0 0 0 0 0 0 0 0 0 0 0 0 0 0 0 127 0" result="hardAlpha"/>
<feOffset dy="4"/>
<feGaussianBlur stdDeviation="2"/>
<feComposite in2="hardAlpha" operator="out"/>
<feColorMatrix type="matrix" values="0 0 0 0 0 0 0 0 0 0 0 0 0 0 0 0 0 0 0.25 0"/>
<feBlend mode="normal" in2="BackgroundImageFix" result="effect1_dropShadow_31_357"/>
<feBlend mode="normal" in="SourceGraphic" in2="effect1_dropShadow_31_357" result="shape"/>
</filter>
</defs>
</svg>
