<svg width="568" height="428" viewBox="0 0 568 428" fill="none" xmlns="http://www.w3.org/2000/svg">
<path d="M285.676 404.974L498.321 285.722C499.86 284.856 501.147 283.604 502.055 282.09C502.963 280.576 503.461 278.851 503.499 277.086C503.538 275.321 503.116 273.576 502.275 272.023C501.434 270.471 500.204 269.164 498.704 268.232L292.52 140.475C290.955 139.506 289.157 138.979 287.316 138.952C285.475 138.924 283.662 139.397 282.069 140.319L57.1692 270.787C55.6307 271.681 54.354 272.963 53.4665 274.505C52.579 276.048 52.1119 277.796 52.1119 279.575C52.1119 281.354 52.579 283.102 53.4665 284.644C54.354 286.186 55.6307 287.468 57.1692 288.362L257.744 404.776C261.981 407.234 266.785 408.545 271.684 408.579C276.582 408.614 281.404 407.372 285.676 404.974Z" fill="#FFD49C"/>
<path style="mix-blend-mode:multiply" opacity="0.32" d="M273.506 320.688L199.751 361.603L184.472 340.848L252.462 305.541" fill="url(#paint0_linear_28_196)"/>
<path style="mix-blend-mode:multiply" opacity="0.32" d="M474.365 281.278L400.625 322.193L385.345 301.438L458.291 262.482" fill="url(#paint1_linear_28_196)"/>
<path style="mix-blend-mode:multiply" opacity="0.32" d="M431.453 262.808L357.712 303.723L235.663 229.474L285.434 176.024" fill="url(#paint2_linear_28_196)"/>
<path d="M369.143 250.003L368.859 293.104L373.247 295.333L375.618 287.468V258.294V251.579" fill="#EDEFDF"/>
<path d="M377.976 256.079V292.607L373.247 295.333V251.579L377.976 256.079Z" fill="#FEFFFA"/>
<path d="M422.62 220.09L422.351 263.177L426.724 265.421L429.096 257.541V228.367V221.652" fill="#EDEFDF"/>
<path d="M431.453 226.152V262.681L426.724 265.421V221.652L431.453 226.152Z" fill="#FEFFFA"/>
<path d="M306.422 152.457L431.453 225.017L377.976 256.079L252.462 183.832L306.422 152.457Z" fill="#FEFFFA"/>
<path d="M252.462 183.832V178.324L260.939 182.242L260.215 184.769" fill="#FEFFFA"/>
<path d="M431.453 225.017V219.494L424.566 221.326L428.016 224.548" fill="#FEFFFA"/>
<path d="M306.422 146.949L431.453 219.494L377.976 250.571L252.462 178.324L306.422 146.949Z" fill="#FEFFFA"/>
<path d="M306.422 146.949L431.453 219.494L377.976 250.571L252.462 178.324L306.422 146.949Z" fill="#78A9F8"/>
<path d="M252.462 178.324V172.801L260.939 176.734L260.215 179.246" fill="#78A9F8"/>
<path d="M431.453 219.494V213.986L424.566 215.817L428.016 219.026" fill="#78A9F8"/>
<path d="M306.422 141.44L431.453 213.986L377.976 245.048L252.462 172.801L306.422 141.44Z" fill="#AECFFF"/>
<path d="M252.433 181.603L252.149 224.704L256.537 226.933L258.894 219.068V189.894V183.179" fill="#EDEFDF"/>
<path d="M261.266 187.679V224.207L256.537 226.933V183.179L261.266 187.679Z" fill="#FEFFFA"/>
<path d="M371.117 64.6362V133.178L347.162 118.513V51.4332L371.117 64.6362Z" fill="#54C3E8"/>
<path d="M387.475 95.9968V119.251L330.803 86.0307V63.1739L387.475 95.9968Z" fill="#54C3E8"/>
<path d="M225.042 36.115L219.475 34.8231L157.876 70.2865L158.898 191.569L161.213 192.847" fill="#DD654A"/>
<path d="M225.042 36.115L225.752 155.793L161.213 192.847V72.203L225.042 36.115Z" fill="#F8997C"/>
<path d="M222.77 42.6029V154.09L164.138 186.558V75.738L222.77 42.6029Z" fill="#FDF2D6"/>
<path d="M199.78 91.3119L200.092 91.2267V92.0927L195.42 94.4493V93.5833L195.818 93.2994L196.201 93.0155C196.304 92.9347 196.4 92.8444 196.485 92.7457L196.599 92.5328V92.3056L196.514 92.0501L195.889 89.7928C195.879 89.7312 195.845 89.6761 195.794 89.639C195.744 89.6019 195.681 89.5858 195.619 89.5941C195.46 89.6135 195.306 89.6616 195.165 89.736L193.148 90.7582C193.008 90.8211 192.886 90.9174 192.792 91.0387C192.698 91.16 192.635 91.3026 192.609 91.4538L192.183 93.8105V94.066V94.35C192.183 94.8894 192.58 94.9746 193.361 94.5771V95.5425L190.138 97.1609V96.1671C190.762 95.6727 191.17 94.9548 191.274 94.1654L194.441 80.6359L195.733 80.281L199.07 90.9711C199.093 91.0775 199.152 91.1725 199.238 91.2399C199.323 91.3072 199.43 91.3427 199.538 91.3402L199.78 91.3119ZM195.151 88.4725C195.378 88.3589 195.491 88.2738 195.477 88.217C195.41 87.8753 195.32 87.5385 195.207 87.209L194.213 84.0999L193.12 88.7423C193.049 88.9743 192.997 89.2117 192.964 89.4521C192.964 89.5657 193.12 89.5373 193.404 89.4521L195.094 88.6003" fill="#494137"/>
<path d="M204.963 114.027C205.074 114.014 205.183 113.99 205.289 113.956V114.822L200.618 117.178V116.312L201.029 116.028L201.413 115.744C201.515 115.662 201.609 115.572 201.697 115.475L201.81 115.262V115.035L201.725 114.765L201.1 112.508C201.087 112.446 201.049 112.392 200.996 112.357C200.943 112.323 200.879 112.31 200.816 112.323C200.658 112.342 200.504 112.391 200.362 112.465L198.346 113.473C198.209 113.536 198.088 113.631 197.995 113.75C197.901 113.868 197.836 114.007 197.806 114.154L197.38 116.525V116.767V117.065C197.38 117.604 197.778 117.675 198.559 117.292V118.257L195.449 119.819H195.335V118.882C195.964 118.385 196.372 117.661 196.471 116.866L199.638 103.337L200.93 102.953L204.267 113.643C204.292 113.757 204.358 113.858 204.452 113.927C204.535 113.987 204.633 114.022 204.736 114.027C204.811 114.035 204.887 114.035 204.963 114.027ZM200.348 111.187C200.561 111.074 200.674 111.003 200.674 110.946C200.607 110.604 200.517 110.267 200.405 109.938L199.425 106.829L198.36 111.386C198.293 111.618 198.245 111.856 198.218 112.096C198.218 112.195 198.36 112.195 198.644 112.096L200.348 111.244" fill="#494137"/>
<path d="M195.037 119.024H195.25V119.904L190.692 122.204V121.295L191.104 121.011L191.487 120.727C191.589 120.646 191.684 120.555 191.771 120.458L191.885 120.245V120.018L191.799 119.748L191.132 117.462C191.118 117.4 191.081 117.346 191.028 117.312C190.975 117.277 190.91 117.265 190.848 117.278C190.69 117.292 190.536 117.335 190.394 117.405L188.377 118.428C188.239 118.489 188.118 118.583 188.024 118.702C187.93 118.821 187.866 118.96 187.838 119.109L187.412 121.48V121.721V122.005C187.412 122.545 187.809 122.63 188.59 122.232V123.198L185.367 124.816V123.851C185.995 123.354 186.403 122.63 186.503 121.835L189.669 108.305L190.962 107.922L194.299 118.612C194.327 118.725 194.392 118.824 194.483 118.896C194.567 118.953 194.666 118.982 194.767 118.981C194.854 119.009 194.945 119.024 195.037 119.024ZM190.422 116.185C190.635 116.071 190.763 115.986 190.749 115.929C190.676 115.589 190.586 115.252 190.479 114.921L189.485 111.812L188.434 116.369C188.364 116.601 188.312 116.839 188.278 117.079C188.278 117.178 188.42 117.178 188.704 117.079L190.408 116.227" fill="#494137"/>
<path d="M190.507 146.651L190.834 146.58V147.446L186.162 149.802V148.936L186.56 148.652L186.943 148.368C187.046 148.288 187.141 148.197 187.227 148.099L187.341 147.886V147.659L187.255 147.389L186.631 145.132C186.626 145.102 186.614 145.073 186.598 145.047C186.582 145.021 186.56 144.999 186.535 144.982C186.51 144.965 186.481 144.953 186.451 144.947C186.422 144.941 186.391 144.941 186.361 144.947C186.202 144.967 186.048 145.015 185.906 145.089L183.89 146.111C183.752 146.173 183.63 146.267 183.536 146.386C183.442 146.504 183.379 146.644 183.35 146.793L182.924 149.164V149.405V149.689C182.924 150.242 183.322 150.313 184.103 149.93V150.896L180.88 152.514V151.534C181.504 151.04 181.911 150.322 182.016 149.533L185.097 135.918L186.389 135.549L189.726 146.239C189.749 146.347 189.808 146.443 189.893 146.513C189.978 146.583 190.085 146.621 190.195 146.622C190.297 146.648 190.402 146.657 190.507 146.651ZM185.878 143.882C186.105 143.769 186.219 143.684 186.205 143.627C186.137 143.285 186.047 142.948 185.935 142.619L184.941 139.51L183.89 144.067C183.82 144.299 183.768 144.537 183.734 144.777C183.734 144.876 183.89 144.862 184.174 144.777L185.864 143.925" fill="#494137"/>
<path d="M199.993 137.465C200.123 137.927 200.185 138.405 200.177 138.885C200.196 139.592 200.1 140.296 199.893 140.972C199.718 141.547 199.45 142.089 199.098 142.576C198.769 143.019 198.376 143.411 197.934 143.74C197.487 144.07 197.012 144.36 196.514 144.606L194.114 145.771L191.459 147.062V146.182C191.813 146.06 192.123 145.836 192.351 145.538C192.578 145.24 192.712 144.881 192.737 144.507L192.651 134.697C192.651 133.817 192.183 133.618 191.231 134.058V133.164L196.003 130.765C196.389 130.506 196.822 130.327 197.278 130.237C197.734 130.147 198.203 130.147 198.658 130.239C199.254 130.438 199.553 131.162 199.567 132.397C199.594 133.189 199.423 133.974 199.07 134.683C198.711 135.37 198.23 135.985 197.65 136.5C198.001 136.399 198.364 136.347 198.729 136.344C199.018 136.348 199.298 136.448 199.524 136.628C199.754 136.859 199.916 137.149 199.993 137.465ZM197.38 142.491C197.829 141.259 197.918 139.924 197.636 138.644C197.578 138.37 197.414 138.131 197.181 137.977C196.926 137.872 196.641 137.872 196.386 137.977C195.988 138.086 195.602 138.239 195.236 138.431C195.023 138.53 194.923 138.8 194.938 139.24V143.698C194.938 143.925 195.023 144.039 195.193 144.081C195.495 144.071 195.788 143.983 196.045 143.826C196.619 143.551 197.085 143.091 197.366 142.519L197.38 142.491ZM194.923 133.079V137.068C194.923 137.38 195.023 137.48 195.236 137.366C195.616 137.181 195.974 136.953 196.301 136.685C196.565 136.477 196.783 136.216 196.94 135.918C197.09 135.62 197.186 135.298 197.224 134.967C197.251 134.56 197.251 134.152 197.224 133.746C197.265 133.15 197.168 132.552 196.94 132C196.755 131.659 196.386 131.645 195.846 131.915C195.553 132.042 195.288 132.225 195.065 132.454C194.911 132.614 194.825 132.828 194.824 133.05" fill="#494137"/>
<path d="M205.46 125.838C205.681 125.73 205.908 125.635 206.141 125.554C206.378 125.484 206.621 125.432 206.866 125.398C207.087 125.362 207.312 125.362 207.533 125.398C207.734 125.429 207.922 125.518 208.073 125.654C208.258 125.052 208.59 124.506 209.038 124.064C209.447 125.61 209.629 127.207 209.578 128.805L208.612 129.288C208.525 128.352 208.192 127.456 207.647 126.69C207.43 126.489 207.152 126.368 206.857 126.348C206.563 126.327 206.27 126.408 206.028 126.577C205.559 126.815 205.166 127.179 204.892 127.627C204.59 128.122 204.36 128.657 204.21 129.217C204.039 129.853 203.93 130.505 203.884 131.162C203.82 131.856 203.792 132.552 203.798 133.249C203.798 134.186 203.798 135.038 203.926 135.819C203.983 136.478 204.126 137.127 204.352 137.749C204.488 138.177 204.769 138.544 205.147 138.786C205.354 138.868 205.578 138.901 205.8 138.881C206.022 138.862 206.236 138.79 206.425 138.672C207.135 138.294 207.715 137.71 208.087 136.997C208.618 135.943 209 134.82 209.223 133.661H209.819C209.702 134.374 209.526 135.077 209.294 135.762C209.079 136.398 208.804 137.011 208.47 137.593C208.173 138.107 207.816 138.584 207.405 139.013C207.039 139.393 206.612 139.71 206.141 139.95C205.496 140.326 204.758 140.513 204.011 140.489C203.735 140.465 203.467 140.384 203.223 140.252C202.978 140.12 202.764 139.94 202.591 139.723C202.183 139.183 201.906 138.556 201.782 137.891C201.6 137.013 201.51 136.119 201.512 135.222C201.5 134.182 201.567 133.143 201.711 132.113C201.83 131.186 202.059 130.275 202.393 129.402C202.694 128.613 203.115 127.875 203.642 127.215C204.149 126.638 204.767 126.17 205.46 125.838Z" fill="#494137"/>
<path d="M481.309 259.288C481.309 259.288 480.571 282.641 469.58 283.195C458.589 283.749 457.851 259.288 457.851 259.288" fill="#6DE1FC"/>
<path d="M481.309 259.288C481.309 259.288 480.571 282.641 469.58 283.195C458.589 283.749 457.851 259.288 457.851 259.288" fill="#54C3E8"/>
<path d="M469.58 263.703C476.058 263.703 481.309 261.726 481.309 259.288C481.309 256.849 476.058 254.872 469.58 254.872C463.102 254.872 457.851 256.849 457.851 259.288C457.851 261.726 463.102 263.703 469.58 263.703Z" fill="#311E69"/>
<path d="M472.775 262.269C474.947 252.742 478.654 243.632 483.751 235.295C484.177 234.599 485.583 235.196 485.171 235.891C480.114 244.147 476.435 253.171 474.28 262.61C474.181 263.362 472.604 263.05 472.775 262.269Z" fill="#311E69"/>
<path d="M466.072 263.774C466.883 252.437 468.281 241.149 470.261 229.957C470.389 229.205 472.036 229.205 471.894 229.957C469.917 241.121 468.519 252.38 467.705 263.689L466.072 263.774Z" fill="#311E69"/>
<path d="M487.372 233.166C489.297 232.796 491.284 232.913 493.152 233.506C494.472 233.932 497.199 235.139 496.659 236.431C496.12 237.723 492.811 237.524 491.49 237.24C490.571 237.056 489.698 236.691 488.92 236.167C488.143 235.643 487.477 234.97 486.961 234.188C486.954 234.141 486.954 234.093 486.961 234.046C486.691 233.719 486.776 233.279 487.372 233.166Z" fill="#C3EA75"/>
<path d="M484.802 232.456C484.916 232.631 485.093 232.756 485.297 232.804C485.501 232.852 485.716 232.818 485.896 232.711C487.685 231.76 489.928 231.15 491.192 229.744C492.073 228.765 492.442 227.146 490.837 226.436C490.069 226.153 489.24 226.076 488.433 226.213C487.625 226.35 486.868 226.697 486.236 227.217C484.816 228.452 484.632 230.241 484.291 231.774C484.22 232.101 484.476 232.342 484.802 232.456ZM488.182 227.515V227.671C487.644 227.979 487.163 228.378 486.762 228.85C487.105 228.279 487.602 227.817 488.196 227.515H488.182Z" fill="#C3EA75"/>
<path d="M480.045 229.318C482.686 228.452 483.141 231.746 483.212 232.853C483.212 233.166 482.985 233.336 482.672 233.407C482.503 233.516 482.306 233.574 482.104 233.574C481.903 233.574 481.706 233.516 481.536 233.407C480.642 232.825 479.52 232.271 479.236 231.377C479.149 231.189 479.102 230.986 479.096 230.779C479.09 230.573 479.126 230.367 479.202 230.175C479.277 229.983 479.391 229.808 479.536 229.661C479.681 229.513 479.854 229.397 480.045 229.318Z" fill="#C3EA75"/>
<path d="M470.02 227.785C470.162 227.976 470.365 228.111 470.596 228.168C470.826 228.225 471.07 228.2 471.284 228.097C471.425 228.124 471.569 228.124 471.71 228.097C473.755 227.87 474.791 225.514 475.16 224.278C475.53 223.043 475.927 221.013 473.882 220.36C473.042 220.095 472.135 220.142 471.327 220.491C470.518 220.841 469.863 221.469 469.48 222.263C469.175 223.169 469.065 224.13 469.158 225.082C469.251 226.033 469.545 226.955 470.02 227.785ZM471.128 226.11C471.074 225.795 471.074 225.473 471.128 225.159C471.111 225.376 471.111 225.594 471.128 225.812V226.11Z" fill="#C3EA75"/>
<path d="M459.285 228.112C459.214 229.631 461.287 230.255 463.019 230.497C464.084 230.653 467.918 231.334 467.989 229.971C468.094 229.899 468.167 229.79 468.193 229.666C468.219 229.542 468.197 229.412 468.131 229.304C467.279 227.884 465.291 227.217 463.303 226.834C461.656 226.522 459.356 226.451 459.285 228.112ZM460.889 228.112C460.954 228.198 461.025 228.278 461.102 228.353C461.041 228.431 461.002 228.524 460.989 228.623C460.938 228.596 460.894 228.559 460.86 228.513C460.826 228.466 460.803 228.413 460.794 228.356C460.784 228.3 460.788 228.242 460.804 228.187C460.821 228.132 460.85 228.082 460.889 228.041V228.112Z" fill="#C3EA75"/>
<path d="M473.982 229.29C474.08 229.45 474.226 229.575 474.399 229.649C474.572 229.723 474.764 229.741 474.947 229.702C476.046 229.611 477.11 229.271 478.057 228.708C478.725 228.239 479.08 227.388 478.526 226.777C477.262 225.357 474.351 227.728 473.598 228.466C473.243 228.821 473.542 229.162 473.982 229.29ZM476.282 228.168H476.14L476.964 227.771C476.763 227.959 476.526 228.104 476.268 228.197L476.282 228.168Z" fill="#C3EA75"/>
<path d="M121.58 130.722C118.641 145.288 107.593 155.609 96.9292 153.763C86.265 151.918 79.9886 138.63 82.928 124.064C85.8674 109.498 96.915 99.1768 107.579 101.022C118.243 102.868 124.534 116.17 121.58 130.722Z" fill="#56403D"/>
<path d="M123.938 131.659C120.998 146.225 109.951 156.546 99.2864 154.7C88.6222 152.855 82.36 139.524 85.2852 124.972C88.2104 110.421 99.2722 100.085 109.936 101.931C120.601 103.777 126.877 117.065 123.938 131.659Z" fill="#FFDAC0"/>
<path d="M121.552 131.219C118.968 143.996 109.297 153.025 99.9396 151.407C90.5818 149.788 85.1006 138.147 87.6708 125.384C90.241 112.621 99.9254 103.578 109.34 105.182C118.755 106.786 124.122 118.456 121.552 131.219Z" fill="#54C3E8"/>
<path d="M110.178 125.341L106.315 128.252L107.324 114.453C107.494 112.138 103.404 111.84 103.234 114.154L101.899 132.284C101.889 132.638 101.993 132.986 102.194 133.277C102.396 133.568 102.686 133.787 103.021 133.902C103.362 134.092 103.75 134.18 104.14 134.158C104.53 134.135 104.905 134.002 105.222 133.774L112.805 128.096C114.878 126.591 112.18 123.837 110.178 125.341Z" fill="#56403D"/>
<path d="M381.327 140.887C381.327 141.37 376.485 150.328 379.041 154.09C381.597 157.852 397.217 155.424 397.217 155.424" fill="#FBAE17"/>
<path d="M400.44 133.363C400.781 134.101 405.169 145.799 410.053 150.328C414.938 154.856 419.198 152.4 419.653 159.47C420.107 166.54 414.356 170.146 417.565 173.667C420.774 177.188 418.63 186.444 408.96 188.276C399.29 190.107 388.739 165.447 388.753 163.829" fill="#FBAE17"/>
<path d="M359.487 184.925C359.487 184.925 354.517 195.729 352.188 198.625C349.86 201.521 345.174 206.49 345.756 207.356C346.308 207.952 346.993 208.408 347.756 208.687C348.519 208.966 349.337 209.059 350.144 208.96C352.188 208.818 355.696 202.387 355.398 203.409C355.099 204.431 354.077 210.011 355.256 208.974C356.434 207.938 356.562 202.827 357.67 201.365C358.777 199.903 369.2 184.925 369.2 184.925" fill="#FFD0B0"/>
<path d="M335.234 287.567L330.675 284.544C330.675 284.544 330.86 280.214 332.663 279.56C334.467 278.907 335.234 287.567 335.234 287.567Z" fill="#6B2215"/>
<path d="M330.576 260.949C330.576 260.949 324.754 279.589 323.888 280.568C323.022 281.548 312.84 289.229 311.818 290.975C310.795 292.721 320.593 292.834 324.399 292.394C328.205 291.954 331.882 290.577 332.195 289.214C332.507 287.851 331.968 280.583 333.302 280.923C334.637 281.264 335.219 287.553 335.219 287.553L338.713 286.134L342.632 260.324" fill="#6B2215"/>
<path d="M352.913 294.737L348.354 291.713C348.354 291.713 348.539 287.383 350.342 286.73C352.146 286.077 352.913 294.737 352.913 294.737Z" fill="#6B2215"/>
<path d="M348.255 268.104C348.255 268.104 342.433 286.744 341.567 287.724C340.701 288.703 330.519 296.384 329.497 298.13C328.474 299.876 338.272 299.99 342.078 299.55C345.884 299.109 349.561 297.732 349.874 296.369C350.186 295.007 349.647 287.738 350.981 288.079C352.316 288.419 352.898 294.708 352.898 294.708L356.392 293.289L360.311 267.479" fill="#6B2215"/>
<path d="M390.102 181.702C391.934 183.25 382.505 202.486 380.517 213.744C378.529 225.002 351.89 231.306 351.89 231.306L344.535 277.275C337.933 276.992 331.377 276.041 324.967 274.436C324.967 274.436 332.521 220.9 335.305 215.051C338.088 209.202 377.905 186.345 377.905 186.345" fill="#B7B3AE"/>
<path d="M396.975 185.195C398.807 186.742 404.586 199.392 398.892 215.76C395.143 226.55 371.571 235.48 371.571 235.48L360.211 279.717C354.804 282.023 348.736 282.25 343.171 280.356C343.171 280.356 347.218 230.113 350.002 224.264C352.785 218.415 382.775 196.566 382.775 196.566" fill="#B7B3AE"/>
<path d="M388.512 193.244C388.512 193.244 372.807 203.665 371.117 204.275C369.427 204.886 359.757 208.918 361.276 209.116C362.931 209.223 364.591 209.223 366.246 209.116C366.246 209.116 360.041 215.093 361.12 216.74C362.199 218.387 366.459 218.94 368.305 218.387C370.151 217.833 373.985 212.282 374.752 211.729C375.519 211.175 396.052 200.811 396.052 200.811" fill="#FFD0B0"/>
<path d="M396.776 152.755C391.97 150.766 386.737 150.028 381.568 150.612C379.042 150.87 376.657 151.901 374.738 153.565C372.281 155.85 371.287 159.243 369.953 162.281C367.928 166.574 365.671 170.754 363.193 174.803C361.113 178.76 358.74 182.557 356.093 186.16L363.96 192.066L375.846 178.196L393.553 187.339L377.791 195.388C376.47 197.816 387.972 205.184 387.972 205.184C387.972 205.184 405.637 203.367 409.272 185.592C414.555 160.336 396.805 152.769 396.776 152.755Z" fill="#63CEBC"/>
<path d="M375.405 171.708C375.405 171.708 374.837 187.75 375.775 189.511C376.712 191.271 393.61 198.625 393.61 198.625L404.217 185.493L375.405 171.708Z" fill="#63CEBC"/>
<path d="M381.398 136.883C381.398 136.883 380.432 151.08 386.183 152.911C391.934 154.743 395.399 147.715 395.399 147.715C395.399 147.715 397.103 138.204 395.314 136.088C393.525 133.973 384.692 133.079 381.398 136.883Z" fill="#FFD0B0"/>
<path d="M384.82 128.592C383.395 129.296 382.114 130.259 381.043 131.432C380.232 132.26 379.593 133.242 379.164 134.319C378.735 135.396 378.524 136.548 378.544 137.707C378.569 137.992 378.659 138.268 378.807 138.514C378.955 138.76 379.156 138.969 379.396 139.126C379.868 139.353 380.396 139.436 380.915 139.368L383.017 139.481L387.859 139.737C388.694 139.694 389.532 139.736 390.358 139.865C390.358 139.865 393.979 148.227 392.985 151.378C392.985 151.378 397.742 150.484 400.085 143.584C401.775 138.772 401.817 131.787 396.918 128.805C395.058 127.831 392.995 127.304 390.894 127.267C388.794 127.23 386.714 127.684 384.82 128.592Z" fill="#FBAE17"/>
<path d="M376.726 166.64C376.65 174.041 376.735 181.442 376.982 188.843C376.982 189.681 375.704 189.667 375.675 188.843C375.438 181.442 375.353 174.041 375.42 166.64C375.42 166.467 375.488 166.3 375.611 166.178C375.733 166.055 375.9 165.987 376.073 165.987C376.246 165.987 376.412 166.055 376.535 166.178C376.657 166.3 376.726 166.467 376.726 166.64Z" fill="#246D5F"/>
<path d="M378.118 194.877C382.369 193.003 386.123 190.163 389.082 186.581C392.04 183 394.121 178.777 395.158 174.249C395.342 173.426 396.578 173.781 396.421 174.604C395.351 179.29 393.205 183.664 390.155 187.379C387.104 191.094 383.231 194.05 378.842 196.013C378.004 196.353 377.351 195.218 378.118 194.877Z" fill="#246D5F"/>
<path d="M343.356 277.289C343.356 277.289 347.204 227.671 349.931 224.264C352.657 220.857 366.232 209.116 366.232 209.116C366.232 209.116 349.079 218.557 347.403 223.313C345.727 228.069 340.204 276.466 340.204 276.466L343.356 277.289Z" fill="#6D665E"/>
<path d="M234.456 133.178L243.658 126.207C243.658 126.207 257.105 126.619 256.708 127.457C256.31 128.294 266.477 149.376 266.477 149.376L264.475 195.019L247.819 205.042" fill="white"/>
<path d="M259.235 295.106C259.235 295.106 260.116 306.989 262.175 308.735C264.234 310.481 272.413 316.756 273.819 317.778C275.224 318.8 273.89 322.193 269.062 322.193C264.234 322.193 255.004 316.515 255.004 316.515L248.188 313.988C248.188 313.988 247.236 302.474 248.699 295.39C250.161 288.306 259.235 295.106 259.235 295.106Z" fill="#4A2B0F"/>
<path d="M236.189 314.314C236.189 314.314 240.988 337.483 237.836 339.272C234.683 341.061 227.555 337.213 226.476 333.238C225.397 329.263 225.794 305.682 226.476 305.541" fill="#4A2B0F"/>
<path d="M265.668 213.645L264.475 299.62C264.475 299.62 253.868 303.226 243.814 299.62L245.802 218.259L239.98 318.232C237.13 319.422 234.073 320.035 230.984 320.035C227.896 320.035 224.838 319.422 221.989 318.232L223.863 206.291L264.503 195.033L265.668 213.645Z" fill="#54C3E8"/>
<path d="M250.843 125.767C250.843 125.767 262.004 122.601 267.457 135.336C274.855 152.585 275.224 251.252 275.224 251.252C271.842 254.542 267.624 256.845 263.027 257.91C263.027 257.91 262.075 156.077 261.266 149.646C259.931 139.013 250.843 125.767 250.843 125.767Z" fill="#DBDBDB"/>
<path d="M259.363 126.562C259.363 126.562 265.654 134.044 265.185 134.044C264.716 134.044 262.927 136.301 262.927 136.301L266.491 139.737L261.933 188.006C261.933 188.006 265.242 152.982 250.829 125.923C250.815 125.867 257.02 125.128 259.363 126.562Z" fill="#EEF3F7"/>
<path d="M240.108 128.649C240.108 128.649 228.932 132.539 226.021 142.846C223.025 153.423 222.557 259.898 222.557 261.02C222.557 262.141 229.657 266.585 235.663 267.465C241.67 268.345 250.488 264.938 250.488 264.938L252.093 202.841C252.093 202.841 251.34 167.151 250.502 160.308C249.664 153.465 240.108 128.649 240.108 128.649Z" fill="#DBDBDB"/>
<path d="M240.108 128.294L235.72 130.892L237.396 140.262L242.848 140.986L241.073 146.211C241.073 146.211 246.91 159.087 247.918 161.273C248.926 163.46 251.709 184.84 251.709 184.84C251.709 184.84 251.056 161.685 250.289 158.746C249.522 155.808 245.461 137.096 240.108 128.294Z" fill="#EEF3F7"/>
<path d="M264.433 146.942C265.03 144.985 264.092 142.964 262.337 142.428C260.582 141.892 258.674 143.045 258.077 145.002C257.479 146.959 258.417 148.98 260.172 149.516C261.927 150.052 263.835 148.899 264.433 146.942Z" fill="#9E9E9E"/>
<path d="M266.037 166.952L270.624 147.9L294.508 139.95L284.44 181.376L261.11 187.367L266.037 166.952Z" fill="#63CEBC"/>
<path d="M256.523 171.41C256.523 171.41 261.862 164.013 263.169 163.445C264.475 162.878 267.556 161.657 268.593 162.026C269.63 162.395 268.252 165.021 268.252 165.021C268.252 165.021 279.115 163.531 280.081 164.468C281.046 165.405 278.49 168.84 276.247 170.828C274.003 172.815 259.207 178.026 259.207 178.026L256.523 171.41Z" fill="#FFB7A2"/>
<path d="M245.816 169.138C242.408 170.115 238.941 170.873 235.436 171.41C234.314 171.41 232.951 171.126 232.596 169.99C232.483 169.589 232.454 169.168 232.511 168.755C232.806 164.019 233.398 159.305 234.286 154.644C234.939 150.47 238.858 150.101 236.785 146.211C233.689 140.433 231.73 132.624 229.444 136.174C225.666 142.051 217.942 158.249 217.672 165.007C216.763 187.963 222.358 188.943 230.111 188.716C237.864 188.489 261.479 182.682 261.678 179.545C261.805 177.543 260.045 171.85 258.085 168.116C257.219 166.597 251.34 167.775 245.816 169.138Z" fill="#DBDBDB"/>
<path d="M260.442 143.684C260.755 143.471 260.187 123.709 248.77 124.901C237.353 126.094 238.29 134.555 238.716 138.913L236.884 139.169C236.884 139.169 234.74 124.064 249.324 124.021C263.907 123.979 261.536 144.905 261.536 144.905" fill="#9E9E9E"/>
<path d="M258.085 114.893C259.118 114.296 259.964 113.423 260.528 112.372C261.093 111.322 261.353 110.135 261.28 108.944C261.28 104.415 254.265 101.008 251.34 100.597C247.62 100.071 235.209 101.619 234.456 110.875C233.917 117.32 238.333 128.763 241.556 128.848" fill="#4A2B0F"/>
<path d="M241.017 122.445C241.334 121.006 241.727 119.584 242.195 118.186C242.356 117.704 242.527 117.23 242.706 116.767C243.587 114.481 244.936 115.162 246.966 115.162C248.561 115.197 250.154 115.035 251.709 114.68C254.087 114.063 256.364 113.107 258.468 111.84C258.781 116.809 258.98 131.389 250.9 132.639C245.987 133.405 243.303 131.46 241.798 129.132C241.528 126.86 241.272 124.66 241.017 122.445Z" fill="#F0B387"/>
<path d="M242.82 121.863C242.82 121.863 240.86 116.909 239.369 119.365C237.722 122.105 241.258 124.021 241.258 124.021" fill="#F0B387"/>
<path d="M260.065 121.07C260.688 119.03 259.806 116.953 258.096 116.431C256.386 115.909 254.495 117.139 253.872 119.179C253.249 121.219 254.13 123.296 255.84 123.818C257.55 124.34 259.442 123.109 260.065 121.07Z" stroke="#42210B" stroke-width="0.25375" stroke-miterlimit="10"/>
<path d="M251.33 123.195C251.953 121.155 251.072 119.079 249.362 118.557C247.652 118.035 245.76 119.265 245.137 121.304C244.514 123.344 245.396 125.421 247.106 125.943C248.816 126.465 250.707 125.235 251.33 123.195Z" stroke="#42210B" stroke-width="0.25375" stroke-miterlimit="10"/>
<path d="M245.149 121.31L238.716 116.937" stroke="#42210B" stroke-width="0.25375" stroke-miterlimit="10"/>
<path d="M253.498 121.097C253.498 121.097 251.951 121.097 251.525 121.636" stroke="#42210B" stroke-width="0.25375" stroke-miterlimit="10"/>
<path d="M238.73 157.454C236.97 157.454 234.158 157.454 232.653 156.461C231.148 155.467 231.389 154.147 231.545 152.4C231.9 148.34 232.227 140.816 236.884 139.169C240.946 137.749 244.368 140.702 245.816 144.251C246.753 146.566 248.287 150.342 247.705 152.94C247.25 154.984 245.035 156.077 243.246 156.858C242.905 157 242.621 156.517 242.962 156.361C245.049 155.453 247.222 154.232 247.137 151.676C246.939 149.453 246.413 147.272 245.575 145.203C244.155 141.398 240.477 137.863 236.345 140.092C232.965 141.909 232.582 148.354 232.198 151.676C231.943 153.848 231.673 155.254 234.087 156.319C235.596 156.773 237.172 156.96 238.745 156.872C239.114 156.872 239.114 157.454 238.745 157.44L238.73 157.454Z" fill="#4D4D4D"/>
<path d="M244.24 156.049C244.24 156.361 244.666 156.872 244.24 157.085C243.814 157.298 242.422 157.909 242.295 157.454C242.167 157 241.954 156.305 242.295 156.035C242.635 155.765 244.24 155.013 244.24 156.049Z" fill="#4A2B0F"/>
<path d="M239.483 157.029C239.483 157.327 239.724 157.923 239.256 158.036C238.787 158.15 237.31 158.448 237.282 158.036C237.254 157.625 237.197 156.844 237.58 156.617C237.964 156.39 239.71 156.021 239.483 157.029Z" fill="#4A2B0F"/>
<path d="M245.66 166.838C244.24 167.264 242.919 167.648 241.514 167.96C240.108 168.272 237.949 169.011 236.686 168.684C235.422 168.358 235.834 166.2 235.919 165.064C236.058 163.332 236.305 161.611 236.657 159.91C236.842 159.016 235.464 158.633 235.237 159.527C234.802 161.6 234.517 163.702 234.385 165.816C234.385 167.037 233.874 168.968 235.081 169.777C236.288 170.586 237.637 169.99 238.745 169.777C241.192 169.436 243.605 168.885 245.958 168.13C246.952 167.932 246.583 166.555 245.66 166.838Z" fill="#9E9E9E"/>
<defs>
<linearGradient id="paint0_linear_28_196" x1="206.34" y1="350.402" x2="257.89" y2="305.699" gradientUnits="userSpaceOnUse">
<stop stop-color="white" stop-opacity="0"/>
<stop offset="1" stop-color="#F15A24"/>
</linearGradient>
<linearGradient id="paint1_linear_28_196" x1="25913.6" y1="13298.1" x2="28038.5" y2="10552.3" gradientUnits="userSpaceOnUse">
<stop stop-color="white" stop-opacity="0"/>
<stop offset="1" stop-color="#F15A24"/>
</linearGradient>
<linearGradient id="paint2_linear_28_196" x1="44950.1" y1="24205.3" x2="46147.5" y2="19830.6" gradientUnits="userSpaceOnUse">
<stop stop-color="white" stop-opacity="0"/>
<stop offset="1" stop-color="#F15A24"/>
</linearGradient>
</defs>
</svg>
