<svg width="481" height="382" viewBox="0 0 481 382" fill="none" xmlns="http://www.w3.org/2000/svg">
<path d="M191.721 198.103C134.4 232.297 73.9771 381.146 73.9771 381.146L358.619 379.643C358.619 379.643 423.53 223.773 399.456 198.632C375.383 173.49 215.96 183.649 191.721 198.103Z" fill="#2A6174"/>
<path d="M144.151 377.248C144.012 377.242 143.876 377.203 143.755 377.132C143.66 377.082 143.576 377.013 143.508 376.93C143.44 376.847 143.389 376.751 143.358 376.648C143.328 376.545 143.318 376.437 143.329 376.33C143.341 376.223 143.373 376.119 143.425 376.025C144.745 373.63 153.325 355.311 164.034 332.135C198.321 258.313 215.002 223.013 216.982 222.022C217.178 221.928 217.402 221.914 217.608 221.982C217.814 222.049 217.986 222.194 218.088 222.385C218.136 222.483 218.164 222.589 218.171 222.698C218.178 222.806 218.163 222.915 218.128 223.018C218.092 223.12 218.037 223.215 217.965 223.297C217.893 223.378 217.806 223.445 217.708 223.492C215.2 225.887 185.302 290.244 165.519 332.829C154.728 355.955 146.214 374.373 144.861 376.818C144.79 376.945 144.687 377.051 144.563 377.126C144.438 377.202 144.297 377.243 144.151 377.248Z" fill="#231F20"/>
<path d="M261.45 200.366C261.45 200.366 244.95 245.957 259.8 257.735C274.65 269.513 323.919 217.265 329.958 182.311C335.997 147.358 261.45 200.366 261.45 200.366Z" fill="#231F20"/>
<path d="M265.096 260.263C263.007 260.324 260.96 259.659 259.305 258.379C244.141 246.37 259.932 201.968 260.625 200.085C260.673 199.922 260.779 199.781 260.922 199.689C263.067 198.153 313.887 162.274 327.631 170.946C330.7 172.879 331.756 176.744 330.783 182.509C325.833 211.103 292.288 251.062 271.779 258.908C269.651 259.757 267.387 260.216 265.096 260.263ZM262.077 200.796C260.823 204.38 246.633 246.156 260.328 256.959C262.786 258.925 266.449 258.991 271.185 257.174C291.348 249.459 324.315 210.162 329.166 182.03C330.024 177.075 329.166 173.771 326.757 172.119C321.543 168.815 308.706 172.697 289.665 183.319C276.118 191.099 263.826 199.656 262.077 200.911V200.796Z" fill="#231F20"/>
<path d="M259.8 161.729L261.45 200.366C261.45 200.366 275.739 222.666 299.73 213.845C306.801 211.171 313.189 206.953 318.429 201.499C323.669 196.044 327.63 189.49 330.024 182.311L321.691 112.636C321.691 112.636 302.271 104.971 303.063 64.5829C283.888 75.5978 262.105 81.241 240 80.9199C240 80.9199 233.779 125.355 238.96 144.153C244.141 162.951 259.8 161.729 259.8 161.729Z" fill="white"/>
<path d="M288.691 216.719C271.135 216.719 260.823 200.994 260.641 200.812C260.571 200.686 260.531 200.544 260.526 200.399L258.876 162.571C255.444 162.571 242.607 161.035 238.02 144.401C232.839 125.652 238.779 82.6543 239.027 80.8373C239.064 80.643 239.165 80.467 239.315 80.338C239.465 80.209 239.654 80.1346 239.852 80.127C261.821 80.4214 283.47 74.8264 302.552 63.9222C302.677 63.8369 302.824 63.7881 302.976 63.7811C303.128 63.7742 303.279 63.8094 303.412 63.8829C303.545 63.9564 303.656 64.0653 303.731 64.1976C303.806 64.3298 303.843 64.4804 303.839 64.6325C303.426 85.1486 308.393 96.8438 312.6 103.17C317.154 109.894 321.873 111.843 321.922 111.859C322.06 111.917 322.18 112.01 322.27 112.129C322.36 112.248 322.416 112.388 322.434 112.537L330.684 182.212C330.709 182.315 330.709 182.423 330.684 182.526C330.684 182.757 324.084 205.751 299.878 214.622C296.303 215.977 292.515 216.687 288.691 216.719ZM262.291 200.102C263.776 202.332 277.274 221.246 299.483 213.069C321.692 204.892 328.605 184.211 329.183 182.229L320.933 113.197C317.913 111.744 301.924 102.345 302.205 66.0531C283.553 76.3172 262.62 81.714 241.337 81.7458H240.677C239.918 87.5438 235.001 126.809 239.72 143.922C244.67 161.812 259.091 160.953 259.718 160.903C259.94 160.899 260.157 160.975 260.328 161.118C260.491 161.268 260.592 161.475 260.609 161.696L262.291 200.102Z" fill="#231F20"/>
<path d="M312.27 112.041C312.721 108.549 314.29 105.298 316.742 102.774C319.138 100.543 321.894 98.7337 324.893 97.422C326.456 96.535 328.198 96.0101 329.991 95.8857C331.252 95.937 332.491 96.2344 333.638 96.7612C336.46 97.7533 338.833 99.7293 340.32 102.328C341.264 104.54 341.649 106.952 341.442 109.348C341.45 111.96 341.105 114.56 340.419 117.079C339.676 119.584 338.444 121.916 336.793 123.939C335.143 125.963 333.107 127.638 330.804 128.868C328.501 130.097 325.978 130.856 323.38 131.101C320.781 131.346 318.16 131.072 315.669 130.294" fill="white"/>
<path d="M321.543 131.979C319.483 131.987 317.435 131.674 315.471 131.054C315.366 131.026 315.268 130.976 315.183 130.909C315.098 130.841 315.027 130.756 314.976 130.66C314.925 130.564 314.894 130.459 314.886 130.35C314.877 130.242 314.891 130.133 314.927 130.03C314.957 129.926 315.007 129.829 315.075 129.745C315.144 129.661 315.228 129.592 315.323 129.541C315.418 129.49 315.523 129.459 315.631 129.449C315.738 129.44 315.847 129.452 315.95 129.485C318.333 130.227 320.839 130.488 323.324 130.254C325.809 130.019 328.222 129.293 330.425 128.118C332.627 126.942 334.575 125.341 336.154 123.406C337.734 121.472 338.914 119.242 339.627 116.848C340.289 114.392 340.622 111.859 340.617 109.315C340.806 107.061 340.449 104.795 339.578 102.708C338.161 100.305 335.948 98.4758 333.324 97.5376C332.288 97.0524 331.167 96.7773 330.024 96.7282C328.363 96.857 326.751 97.3535 325.305 98.1818C322.391 99.4492 319.713 101.203 317.385 103.369C315.055 105.759 313.566 108.844 313.145 112.157C313.132 112.265 313.099 112.371 313.045 112.466C312.992 112.562 312.92 112.646 312.834 112.714C312.748 112.781 312.65 112.831 312.545 112.86C312.439 112.889 312.329 112.897 312.221 112.883C312.003 112.854 311.805 112.742 311.67 112.569C311.534 112.396 311.471 112.177 311.495 111.958C311.974 108.288 313.624 104.87 316.197 102.212C318.66 99.9123 321.494 98.0468 324.579 96.6952C326.259 95.755 328.122 95.1914 330.041 95.0433C331.414 95.0979 332.764 95.4176 334.017 95.9849C337.016 97.0542 339.533 99.1639 341.112 101.932C342.113 104.268 342.526 106.815 342.317 109.348C342.323 112.032 341.968 114.705 341.261 117.294C340.01 121.541 337.417 125.267 333.87 127.912C330.324 130.557 326.015 131.979 321.593 131.962L321.543 131.979Z" fill="#231F20"/>
<path d="M265.096 126.214C263.16 126.354 261.242 125.765 259.717 124.562C256.17 121.258 264.882 104.938 267.637 99.9989C267.745 99.8086 267.923 99.6686 268.134 99.6098C268.344 99.551 268.569 99.578 268.759 99.685C268.95 99.7926 269.089 99.9712 269.148 100.182C269.207 100.392 269.18 100.618 269.073 100.808C263.727 110.373 259.057 121.704 260.823 123.356C263.265 125.636 269.568 124.149 271.795 123.356C272.003 123.287 272.23 123.302 272.427 123.398C272.624 123.493 272.777 123.662 272.851 123.868C272.92 124.074 272.905 124.299 272.809 124.494C272.713 124.688 272.545 124.838 272.34 124.909C270.003 125.699 267.562 126.139 265.096 126.214Z" fill="#231F20"/>
<path d="M313.475 57.0174C313.475 57.0174 333.275 63.4762 356.21 86.1728L353.058 98.7435C353.058 98.7435 335.7 76.5094 314.25 68.8943L313.475 57.0174Z" fill="#231F20"/>
<path d="M353.058 99.5694C352.934 99.5677 352.812 99.5387 352.701 99.4844C352.59 99.4302 352.492 99.352 352.414 99.2556C352.249 99.0243 335.007 77.1041 313.903 69.6542C313.75 69.6004 313.615 69.5031 313.515 69.3741C313.416 69.245 313.356 69.0899 313.342 68.9274L312.6 57.067C312.591 56.9328 312.615 56.7984 312.67 56.6756C312.724 56.5527 312.808 56.4451 312.914 56.3621C313.02 56.279 313.144 56.2231 313.276 56.1991C313.408 56.1752 313.544 56.1839 313.672 56.2245C313.87 56.2245 333.868 63.0302 356.737 85.5947C356.836 85.695 356.908 85.819 356.946 85.9549C356.983 86.0908 356.985 86.2341 356.952 86.371L353.85 98.9417C353.812 99.0914 353.733 99.2275 353.622 99.3353C353.512 99.4431 353.373 99.5184 353.223 99.5529L353.058 99.5694ZM314.959 68.2997C333.291 74.9071 348.619 92.136 352.662 96.9595L355.302 86.4371C335.98 67.4737 318.87 60.0073 314.365 58.2233L314.959 68.2997Z" fill="#231F20"/>
<path d="M196.44 107.482C196.44 107.482 232.014 124.925 235.858 124.925C239.703 124.925 255.394 123.868 256.78 120.383C258.166 116.897 254.685 115.146 258.876 114.453C263.067 113.759 267.604 118.979 273.874 118.979C280.144 118.979 316.774 110.951 323.374 104.31C329.974 97.6697 331.41 60.668 326.872 53.3338C322.335 45.9995 304.02 28.7045 295.126 27.1352C286.876 25.6816 210.696 44.5954 199.542 52.9869C188.388 61.3783 189.46 94.9111 196.44 107.482Z" fill="white"/>
<path d="M235.858 125.768C231.931 125.768 199.723 110.009 196.077 108.225C195.923 108.15 195.796 108.029 195.714 107.878C188.487 94.8616 187.728 60.8498 199.014 52.3262C209.821 44.2155 286.464 24.7731 295.242 26.3423C304.432 27.9942 323.011 45.5865 327.532 52.9043C330.09 57.034 330.667 69.0595 330.106 79.1524C329.826 84.0089 328.588 100.263 323.935 104.921C316.873 111.991 279.633 119.788 273.808 119.788C270.679 119.608 267.639 118.673 264.948 117.063C262.671 115.923 260.707 114.948 258.942 115.246C257.754 115.444 257.539 115.675 257.523 115.725C257.506 115.774 257.523 116.319 257.638 116.683C258.031 117.995 257.978 119.401 257.49 120.68C255.675 125.388 236.056 125.768 235.858 125.768ZM197.1 106.854C211.339 113.842 233.251 124.116 235.924 124.116C242.293 124.116 255.097 122.464 256.087 120.086C256.424 119.112 256.424 118.053 256.087 117.079C255.951 116.717 255.891 116.33 255.911 115.944C255.931 115.557 256.03 115.179 256.203 114.833C256.525 114.474 256.916 114.184 257.353 113.98C257.789 113.775 258.262 113.661 258.744 113.643C261.037 113.263 263.331 114.403 265.74 115.626C268.211 117.108 271 117.98 273.874 118.169C279.963 118.169 316.345 110.24 322.83 103.749C329.314 97.2568 330.552 60.8002 326.13 53.7798C321.708 46.7594 303.525 29.4644 295.011 27.9612C286.497 26.458 210.745 45.6361 200.07 53.6642C189.394 61.6922 190.335 94.4156 197.1 106.854Z" fill="#231F20"/>
<path d="M292.8 27.1517C277.092 28.5558 207 42.5141 197.1 49.3362C187.2 56.1584 186.639 101.717 196.589 107.482C206.538 113.247 288.675 96.9925 302.287 83.9097C315.9 70.827 308.409 25.8137 292.8 27.1517Z" fill="white"/>
<path d="M204.789 109.514C200.681 109.514 197.595 109.101 196.028 108.192C191.787 105.731 188.966 96.53 188.471 83.5629C187.943 69.3073 190.517 52.7391 196.49 48.6425C206.472 41.8038 276.201 27.796 292.635 26.3258C297.585 25.9128 302.139 29.6295 305.439 36.9308C313.442 54.5231 310.538 76.9554 302.7 84.5044C295.341 91.5909 269.7 98.9912 248.085 103.567C232.361 106.904 215.25 109.514 204.789 109.514ZM292.8 27.1517V27.9777C277.686 29.3157 207.182 43.34 197.447 50.0135C192.678 53.3172 189.543 67.6719 190.137 83.5133C190.599 95.7206 193.173 104.624 196.869 106.755C201.242 109.299 222.642 107.284 247.755 101.948C274.601 96.2657 295.721 88.9479 301.578 83.3151C310.505 74.7254 310.175 51.2855 303.954 37.608C302.222 33.7922 298.46 27.4491 292.8 27.9777V27.1517Z" fill="#231F20"/>
<path d="M321.675 101.667C321.461 101.665 321.254 101.583 321.098 101.436L306.099 87.1144C306.022 87.039 305.961 86.949 305.92 86.8498C305.878 86.7505 305.856 86.6439 305.856 86.5362C305.856 86.4285 305.878 86.3219 305.92 86.2226C305.961 86.1234 306.022 86.0334 306.099 85.9581C306.176 85.8806 306.267 85.8192 306.368 85.7773C306.468 85.7353 306.576 85.7137 306.685 85.7137C306.794 85.7137 306.902 85.7353 307.002 85.7773C307.103 85.8192 307.194 85.8806 307.271 85.9581L322.269 100.28C322.346 100.355 322.407 100.445 322.449 100.544C322.49 100.644 322.512 100.75 322.512 100.858C322.512 100.966 322.49 101.072 322.449 101.171C322.407 101.271 322.346 101.361 322.269 101.436C322.192 101.514 322.099 101.574 321.996 101.614C321.894 101.654 321.785 101.672 321.675 101.667Z" fill="#231F20"/>
<path d="M200.614 56.8357C195.664 61.7913 195.664 86.1728 200.268 95.6049C204.871 105.037 286.777 86.1728 296.545 76.7407C306.313 67.3085 300.39 42.861 293.064 36.9308C285.738 31.0006 205.498 51.9462 200.614 56.8357Z" fill="white"/>
<path d="M210.3 99.0078C208.283 99.0326 206.269 98.8834 204.278 98.5618C201.671 98.0993 200.103 97.2403 199.476 95.9683C194.988 86.6188 194.526 61.7087 199.988 56.3236C202.793 53.5155 225.414 46.875 245.693 42.0846C258.464 39.0617 288.708 32.4542 293.543 36.3526C298.377 40.251 302.007 50.41 302.42 59.9247C302.766 67.5563 300.869 73.7673 297.09 77.4014C292.041 82.357 270.69 88.5515 254.058 92.4499C239.439 95.8197 221.57 99.0078 210.3 99.0078ZM287.85 36.7491C269.304 36.7491 205.829 52.7721 201.192 57.4139C196.556 62.0556 196.539 85.9911 200.994 95.2415C201.357 95.9849 202.644 96.5961 204.608 96.8934C222.527 100.197 287.669 84.108 295.968 76.0964C299.384 72.7927 301.1 67.0277 300.803 59.8751C300.407 50.7734 296.777 40.9613 292.553 37.5254C291.089 36.8307 289.459 36.5617 287.85 36.7491Z" fill="#231F20"/>
<path d="M426.45 342.971C419.575 343.067 412.756 341.717 406.435 339.008C400.113 336.3 394.431 332.292 389.754 327.246C389.677 327.17 389.616 327.08 389.574 326.981C389.533 326.882 389.511 326.775 389.511 326.667C389.511 326.56 389.533 326.453 389.574 326.354C389.616 326.255 389.677 326.165 389.754 326.089C389.831 326.012 389.922 325.95 390.022 325.909C390.123 325.867 390.231 325.845 390.34 325.845C390.449 325.845 390.557 325.867 390.657 325.909C390.758 325.95 390.849 326.012 390.926 326.089C395.957 331.481 402.162 335.639 409.058 338.243C415.953 340.847 423.356 341.826 430.691 341.105C438.2 340.586 445.495 338.37 452.025 334.622C458.556 330.873 464.152 325.691 468.393 319.465C475.109 309.191 478.409 295.827 478.508 278.598C478.59 262.443 475.802 239.416 462.008 221.427C457.969 216.562 453.478 212.093 448.593 208.08C438.875 199.491 428.793 190.637 427.424 177.091C427.217 174.436 427.217 171.768 427.424 169.113C427.707 166.139 427.668 163.142 427.308 160.176C425.823 150.975 417.738 142.766 405.693 138.24C400.631 136.456 395.462 134.994 390.216 133.862C384.654 132.676 379.179 131.109 373.832 129.171C361.259 124.215 353.009 115.378 351.771 105.434C351.757 105.325 351.765 105.215 351.794 105.109C351.823 105.004 351.873 104.905 351.941 104.819C352.008 104.733 352.092 104.661 352.188 104.608C352.283 104.554 352.388 104.521 352.497 104.508C352.603 104.495 352.711 104.502 352.815 104.53C352.918 104.559 353.015 104.607 353.099 104.673C353.184 104.74 353.254 104.822 353.307 104.915C353.359 105.009 353.392 105.112 353.405 105.219C354.774 116.22 365.169 124.017 374.426 127.618C379.705 129.529 385.107 131.08 390.596 132.26C395.907 133.407 401.143 134.886 406.271 136.687C418.893 141.428 427.358 150.116 428.942 159.912C429.323 162.998 429.367 166.116 429.074 169.212C428.867 171.779 428.867 174.359 429.074 176.926C430.377 189.811 440.195 198.4 449.699 206.841C454.65 210.932 459.207 215.478 463.311 220.42C477.402 238.772 480.257 262.195 480.174 278.615C480.075 296.174 476.676 309.818 469.779 320.374C465.403 326.81 459.624 332.167 452.879 336.042C446.134 339.916 438.598 342.206 430.839 342.74C429.338 342.971 427.869 342.971 426.45 342.971Z" fill="#231F20"/>
<path d="M310.224 335.439C298.426 310.231 193.074 213.317 184.692 200.746C176.31 188.175 178.405 181.105 164.793 172.202C151.18 163.298 130.011 147.573 126.843 149.406C123.675 151.24 123.18 158.31 125.803 162.505C128.427 166.701 137.056 171.938 139.399 176.133C141.742 180.329 141.759 181.634 141.759 181.634C141.759 181.634 103.809 172.73 98.5949 167.477C93.3809 162.225 85.7744 143.658 80.5439 141.048C77.2122 139.443 73.4785 138.868 69.8189 139.396C69.8189 139.396 64.3244 132.326 60.6614 135.2C58.2194 137.116 58.6154 140.42 60.1334 142.782C55.9424 139.875 57.3449 146.829 57.6584 148.795C60.7896 166.92 70.0309 183.424 83.8421 195.555C97.6532 207.687 115.2 214.713 133.558 215.464C140.043 215.695 149.316 214.258 153.985 219.511C158.044 224.07 159.331 230.926 162.103 236.245C166.03 243.788 170.04 251.304 174.132 258.792C184.296 277.376 194.905 295.761 206.323 313.601C218.83 333.11 232.443 355.063 251.17 369.253C289.912 398.656 322.038 360.663 310.224 335.439Z" fill="white"/>
<path d="M279.286 380.799C270.046 380.799 260.196 377.181 250.692 369.979C232.641 356.302 219.16 335.29 207.264 316.624L205.614 314.113C195.384 298.14 184.84 280.201 173.389 259.255C169.363 251.871 165.304 244.273 161.344 236.691C160.342 234.644 159.455 232.543 158.688 230.397C157.529 226.685 155.725 223.206 153.358 220.122C149.86 216.191 143.458 216.274 137.683 216.356C136.215 216.356 134.812 216.356 133.509 216.356C114.946 215.653 97.1906 208.572 83.2294 196.304C69.2683 184.036 59.9529 167.329 56.8499 148.993V148.646C56.3549 145.755 55.9424 142.6 57.5264 141.593C57.8355 141.41 58.1902 141.318 58.5494 141.328C58.0722 140.181 57.9749 138.91 58.2719 137.703C58.5688 136.496 59.2444 135.416 60.1994 134.622C60.6244 134.281 61.1142 134.031 61.639 133.886C62.1638 133.741 62.7126 133.705 63.2518 133.779C66.2383 134.159 69.2413 137.43 70.1983 138.57C73.8683 138.084 77.6007 138.657 80.9564 140.222C84.1244 141.874 87.7213 148.184 91.5328 154.923C94.2223 159.681 97.0109 164.62 99.2219 166.833C103.099 170.715 127.272 177.24 140.653 180.445C140.117 179.071 139.477 177.74 138.739 176.464C136.828 173.892 134.555 171.611 131.991 169.691C129.413 167.741 127.11 165.451 125.143 162.885C123.44 159.879 122.927 156.341 123.708 152.974C123.862 152.11 124.186 151.285 124.662 150.547C125.138 149.81 125.756 149.175 126.48 148.679C129.037 147.176 137.436 152.561 154.662 164.322C158.457 166.916 162.054 169.377 165.288 171.492C174.33 177.405 176.557 182.476 179.395 188.886C181.05 192.853 183.061 196.662 185.401 200.267C188.371 204.727 204.492 220.717 223.137 239.218C257.011 272.8 303.393 318.805 310.999 335.026C316.84 347.481 312.451 363.504 300.571 373.134C294.591 378.105 287.059 380.817 279.286 380.799ZM140.208 214.688C145.587 214.688 151.18 215.15 154.612 219.032C157.126 222.252 159.038 225.901 160.255 229.802C161.005 231.892 161.87 233.937 162.846 235.931C166.806 243.513 170.848 251.095 174.874 258.462C186.309 279.375 196.836 297.281 207.033 313.221L208.683 315.732C220.513 334.216 233.911 355.162 251.731 368.592C268.495 381.311 286.381 382.517 299.581 371.895C310.884 362.744 315.075 347.547 309.564 335.769C302.073 319.763 255.807 273.89 222.031 240.391C202.545 221.064 187.134 205.784 184.081 201.192C181.688 197.533 179.633 193.662 177.943 189.629C175.221 183.468 172.993 178.595 164.43 172.945C161.13 170.814 157.582 168.353 153.771 165.76C144.036 159.152 129.301 149.059 127.371 150.166C126.302 150.965 125.585 152.15 125.374 153.47C124.674 156.418 125.116 159.523 126.612 162.158C128.497 164.574 130.688 166.734 133.129 168.584C135.853 170.614 138.251 173.048 140.241 175.803C142.584 179.982 142.699 181.452 142.699 181.717C142.698 181.84 142.669 181.962 142.614 182.074C142.56 182.185 142.482 182.283 142.386 182.361C142.289 182.437 142.177 182.489 142.056 182.515C141.936 182.541 141.812 182.539 141.693 182.509C140.043 182.146 103.462 173.49 98.1164 168.155C95.7569 165.776 93.0344 160.969 90.1634 155.881C86.8634 149.935 83.0024 143.212 80.2634 141.857C77.085 140.366 73.5391 139.843 70.0664 140.354C69.9175 140.377 69.7652 140.362 69.6238 140.31C69.4824 140.258 69.3565 140.171 69.2578 140.057C68.3503 138.884 65.4794 135.795 63.0869 135.514C62.7651 135.466 62.4369 135.483 62.1221 135.566C61.8074 135.648 61.5125 135.793 61.2553 135.993C59.2093 137.645 59.6054 140.42 60.9254 142.485C61.0272 142.647 61.0696 142.839 61.0456 143.029C61.0215 143.219 60.9323 143.394 60.7934 143.525C60.6577 143.66 60.4789 143.742 60.2887 143.757C60.0984 143.772 59.909 143.719 59.7539 143.608C58.9124 143.03 58.5329 143.03 58.4504 143.079C58.3679 143.129 57.7574 144.038 58.4504 148.448V148.811C61.4932 166.773 70.6216 183.138 84.3003 195.153C97.979 207.169 115.374 214.102 133.558 214.787C134.829 214.787 136.215 214.787 137.634 214.787L140.208 214.688Z" fill="#231F20"/>
<path d="M98.5784 125.388C121.36 125.388 139.828 106.899 139.828 84.0915C139.828 61.284 121.36 42.7949 98.5784 42.7949C75.7966 42.7949 57.3284 61.284 57.3284 84.0915C57.3284 106.899 75.7966 125.388 98.5784 125.388Z" fill="white"/>
<path d="M98.5784 126.214C90.2568 126.214 82.122 123.744 75.2028 119.115C68.2836 114.487 62.8908 107.908 59.7062 100.211C56.5216 92.5142 55.6884 84.0447 57.3119 75.8738C58.9354 67.7028 62.9426 60.1973 68.8269 54.3064C74.7112 48.4154 82.2083 44.4036 90.37 42.7783C98.5317 41.153 106.992 41.9872 114.68 45.1753C122.368 48.3635 128.939 53.7624 133.563 60.6894C138.186 67.6165 140.653 75.7604 140.653 84.0915C140.645 95.2603 136.209 105.969 128.32 113.867C120.432 121.765 109.735 126.205 98.5784 126.214ZM98.5784 43.6208C90.5831 43.6208 82.7674 45.9944 76.1195 50.4414C69.4716 54.8883 64.2903 61.209 61.2306 68.604C58.1709 75.9991 57.3704 84.1364 58.9302 91.9869C60.49 99.8374 64.3401 107.049 69.9936 112.709C75.6472 118.368 82.8502 122.223 90.6919 123.784C98.5336 125.346 106.662 124.545 114.048 121.481C121.435 118.418 127.749 113.231 132.191 106.576C136.633 99.9204 139.003 92.0958 139.003 84.0915C138.995 73.3607 134.733 63.0719 127.154 55.4841C119.574 47.8962 109.297 43.6296 98.5784 43.6208Z" fill="#D1D3D4"/>
<path d="M34.113 117.31C29.46 117.31 26.028 116.468 25.1535 114.188C22.5135 107.251 46.8015 94.2339 57.3615 88.9645C57.4587 88.9059 57.567 88.8681 57.6795 88.8533C57.7919 88.8385 57.9063 88.8471 58.0153 88.8785C58.1243 88.9099 58.2257 88.9636 58.313 89.036C58.4004 89.1084 58.4719 89.1981 58.5231 89.2995C58.5743 89.4008 58.6041 89.5117 58.6106 89.6251C58.617 89.7385 58.6001 89.852 58.5607 89.9585C58.5214 90.065 58.4605 90.1623 58.382 90.2442C58.3034 90.3261 58.2088 90.391 58.104 90.4346C34.7565 102.097 25.5165 110.472 26.754 113.561C27.9915 116.65 40.812 116.864 66.75 109.712C78.3 106.54 90.9225 102.345 103.463 97.5541C116.333 92.5986 128.79 87.2796 139.482 81.9606C163.226 70.1663 172.647 61.6922 171.426 58.5206C170.205 55.3491 157.962 55.2169 133.146 61.907C133.042 61.9368 132.933 61.9455 132.826 61.9325C132.718 61.9194 132.615 61.8849 132.521 61.831C132.427 61.7771 132.345 61.7049 132.279 61.6186C132.214 61.5323 132.166 61.4338 132.14 61.3288C132.107 61.2247 132.097 61.115 132.109 61.0067C132.121 60.8983 132.155 60.7935 132.209 60.699C132.263 60.6044 132.336 60.5221 132.424 60.4571C132.511 60.392 132.611 60.3458 132.717 60.3212C143.954 57.3148 170.37 51.0542 172.977 57.9425C175.584 64.8307 150.9 78.1448 140.159 83.4803C129.417 88.8158 116.927 94.2339 104.007 99.1399C91.4175 103.93 78.663 108.159 67.1295 111.331C59.1765 113.511 43.9305 117.31 34.113 117.31Z" fill="#D1D3D4"/>
<path d="M69.8354 139.462C69.8354 139.462 73.6964 160.507 89.4374 174.696L69.8354 139.462Z" fill="white"/>
<path d="M89.4373 175.506C89.2379 175.508 89.0444 175.437 88.8928 175.307C73.1188 161.101 69.0929 139.825 69.0929 139.611C69.0535 139.392 69.1026 139.166 69.2295 138.983C69.3564 138.8 69.5506 138.675 69.7694 138.636C69.9882 138.597 70.2136 138.646 70.3962 138.773C70.5788 138.9 70.7035 139.094 70.7429 139.313C70.7429 139.511 74.7524 160.259 90.0973 174.002C90.1747 174.079 90.236 174.17 90.2779 174.271C90.3198 174.372 90.3414 174.48 90.3414 174.589C90.3414 174.698 90.3198 174.806 90.2779 174.906C90.236 175.007 90.1747 175.098 90.0973 175.175C90.0234 175.281 89.9243 175.366 89.8091 175.424C89.6939 175.482 89.5661 175.51 89.4373 175.506Z" fill="#231F20"/>
<path d="M60.1499 142.848C60.1499 142.848 72.5249 173.11 83.5469 178.628L60.1499 142.848Z" fill="white"/>
<path d="M83.5306 179.437C83.4106 179.46 83.2875 179.46 83.1676 179.437C71.9971 173.771 59.8861 144.417 59.3746 143.096C59.2914 142.892 59.2925 142.664 59.3776 142.461C59.4627 142.258 59.6248 142.097 59.8283 142.014C60.0318 141.931 60.26 141.932 60.4627 142.017C60.6653 142.102 60.8259 142.265 60.9091 142.468C61.0246 142.782 73.2841 172.516 83.9101 177.818C84.0798 177.9 84.2163 178.038 84.2969 178.209C84.3774 178.379 84.3972 178.573 84.3528 178.756C84.3084 178.94 84.2026 179.102 84.053 179.217C83.9034 179.332 83.719 179.392 83.5306 179.387V179.437Z" fill="#231F20"/>
<path d="M292.916 313.403C292.751 313.41 292.589 313.364 292.454 313.271C292.364 313.211 292.286 313.134 292.227 313.044C292.167 312.954 292.126 312.853 292.106 312.746C292.086 312.64 292.088 312.531 292.11 312.425C292.133 312.32 292.177 312.22 292.239 312.131C292.52 311.702 320.817 269.876 344.132 225.524C344.233 225.332 344.406 225.188 344.613 225.124C344.82 225.059 345.044 225.078 345.237 225.177C345.333 225.226 345.419 225.293 345.489 225.376C345.559 225.458 345.611 225.554 345.644 225.657C345.676 225.76 345.687 225.869 345.677 225.977C345.667 226.084 345.635 226.189 345.584 226.284C322.22 270.735 293.873 312.627 293.592 313.056C293.516 313.165 293.415 313.254 293.297 313.314C293.179 313.375 293.048 313.405 292.916 313.403Z" fill="#231F20"/>
<path d="M353.074 81.465C352.875 81.4641 352.683 81.394 352.53 81.2668C352.366 81.1206 352.266 80.9162 352.251 80.6971C352.235 80.4781 352.306 80.2616 352.447 80.0939C357.3 74.3745 360.872 67.6809 362.924 60.4635C364.976 53.2462 365.46 45.6726 364.344 38.2523C363.501 31.6641 360.831 25.444 356.638 20.2965C351.507 14.3663 343.438 10.4679 333.918 9.32815C324.942 8.27096 315.768 9.642 307.881 10.98L307.089 11.1287C300.307 12.3015 293.278 13.5239 286.579 11.6077C283.269 10.5216 280.096 9.05253 277.125 7.23028C275.05 6.00791 272.907 4.90488 270.706 3.92656C265.659 1.96737 260.207 1.28162 254.832 1.92978C249.457 2.57794 244.323 4.5401 239.884 7.64325C235.476 10.8183 231.824 14.9311 229.191 19.6863C226.558 24.4415 225.009 29.7213 224.655 35.1468C224.647 35.2552 224.619 35.3611 224.57 35.4584C224.522 35.5557 224.454 35.6425 224.372 35.7138C224.291 35.7852 224.195 35.8396 224.092 35.8741C223.989 35.9086 223.881 35.9225 223.772 35.9149C223.664 35.9073 223.558 35.8784 223.461 35.8299C223.364 35.7814 223.277 35.7141 223.206 35.6321C223.135 35.55 223.08 35.4547 223.046 35.3516C223.011 35.2485 222.997 35.1396 223.005 35.0311C223.373 29.3619 224.99 23.8446 227.74 18.8752C230.49 13.9058 234.305 9.60742 238.911 6.28872C243.587 3.02918 248.993 0.974188 254.651 0.305726C260.309 -0.362736 266.045 0.375964 271.35 2.4564C273.615 3.42125 275.82 4.52457 277.95 5.76013C280.818 7.50792 283.873 8.92647 287.058 9.98889C293.394 11.7894 300.258 10.6166 306.858 9.4603L307.65 9.32815C315.652 7.94059 324.975 6.55302 334.149 7.67629C344.049 8.86563 352.53 12.9457 357.942 19.2393C362.337 24.6272 365.137 31.1388 366.027 38.0375C367.175 45.6924 366.674 53.5047 364.557 60.9496C362.439 68.3945 358.755 75.2995 353.751 81.2007C353.667 81.2945 353.561 81.3673 353.444 81.4131C353.327 81.459 353.2 81.4768 353.074 81.465Z" fill="#231F20"/>
<path d="M269.287 147.721C266.694 147.745 264.15 147.016 261.961 145.623C254.998 141.213 252.903 131.5 252.804 131.087C252.782 130.978 252.782 130.867 252.804 130.758C252.825 130.65 252.868 130.547 252.929 130.455C252.99 130.363 253.069 130.283 253.161 130.222C253.253 130.16 253.356 130.118 253.464 130.096C253.572 130.074 253.684 130.074 253.792 130.095C253.901 130.117 254.004 130.16 254.096 130.221C254.188 130.282 254.267 130.361 254.328 130.453C254.389 130.545 254.432 130.648 254.454 130.757C254.454 130.757 256.516 140.205 262.885 144.236C264.379 145.151 266.046 145.747 267.781 145.986C269.516 146.225 271.282 146.101 272.967 145.623C287.619 142.105 287.52 123.984 287.52 123.802C287.518 123.694 287.537 123.586 287.576 123.485C287.616 123.384 287.675 123.292 287.75 123.213C287.825 123.135 287.915 123.072 288.014 123.029C288.113 122.985 288.22 122.962 288.328 122.96C288.543 122.964 288.748 123.05 288.902 123.2C289.055 123.351 289.145 123.554 289.153 123.769C289.153 123.967 289.285 143.393 273.33 147.226C272.007 147.549 270.65 147.716 269.287 147.721Z" fill="#231F20"/>
<path d="M259.8 161.729C259.8 161.729 283.725 162.241 298.278 143.327C298.278 143.327 290.853 181.766 260.807 184.872L259.8 161.729Z" fill="#231F20"/>
<path d="M260.74 185.698C260.541 185.7 260.348 185.629 260.196 185.499C260.029 185.345 259.928 185.132 259.915 184.905L258.909 161.779C258.901 161.668 258.918 161.558 258.957 161.455C258.997 161.352 259.06 161.26 259.14 161.184C259.308 161.032 259.524 160.944 259.75 160.936C259.998 160.936 283.444 161.184 297.568 142.766C297.684 142.625 297.842 142.526 298.019 142.484C298.197 142.443 298.383 142.461 298.548 142.537C298.714 142.612 298.85 142.74 298.936 142.901C299.021 143.062 299.051 143.247 299.02 143.426C298.938 143.823 291.117 182.509 260.823 185.648L260.74 185.698ZM260.592 162.571L261.516 184.046C284.715 181.056 293.922 155.964 296.545 146.681C283.477 160.969 264.75 162.406 260.592 162.538V162.571Z" fill="#231F20"/>
<path d="M316.494 376.389C316.329 376.39 316.168 376.341 316.031 376.249C315.894 376.158 315.787 376.027 315.725 375.874C315.663 375.721 315.648 375.553 315.682 375.392C315.716 375.23 315.798 375.082 315.917 374.968C316.313 374.588 356.078 335.422 381.735 285.883C381.784 285.787 381.851 285.701 381.934 285.631C382.016 285.561 382.112 285.508 382.215 285.476C382.318 285.444 382.426 285.432 382.534 285.443C382.641 285.453 382.746 285.485 382.841 285.536C383.032 285.638 383.176 285.811 383.24 286.018C383.305 286.225 383.286 286.45 383.187 286.643C357.414 336.413 317.468 375.843 317.055 376.157C316.905 376.304 316.704 376.387 316.494 376.389Z" fill="#231F20"/>
<path d="M216.141 80.5895C215.95 80.5849 215.766 80.5215 215.613 80.4078C215.448 80.2639 215.344 80.0624 215.323 79.8444C215.301 79.6264 215.364 79.4084 215.497 79.235C223.516 69.3238 235.677 54.2588 236.271 52.9539C236.342 52.7489 236.491 52.5803 236.686 52.4844C236.88 52.3886 237.105 52.3733 237.31 52.4418C237.518 52.5201 237.686 52.6755 237.782 52.8756C237.877 53.0758 237.891 53.305 237.822 53.5155C237.36 54.9361 221.602 74.362 216.784 80.2757C216.708 80.3739 216.611 80.4533 216.499 80.5078C216.388 80.5622 216.265 80.5902 216.141 80.5895Z" fill="#D1D3D4"/>
<path d="M245.412 83.3812C245.3 83.3817 245.189 83.3584 245.087 83.3128C244.984 83.2673 244.893 83.2005 244.818 83.1169C244.741 83.0415 244.68 82.9515 244.639 82.8523C244.597 82.753 244.575 82.6464 244.575 82.5387C244.575 82.431 244.597 82.3244 244.639 82.2251C244.68 82.1259 244.741 82.0359 244.818 81.9606L279.204 48.9233C279.278 48.8443 279.368 48.7813 279.467 48.7383C279.566 48.6952 279.673 48.673 279.782 48.673C279.89 48.673 279.997 48.6952 280.096 48.7383C280.196 48.7813 280.285 48.8443 280.359 48.9233C280.436 49.0001 280.498 49.0914 280.54 49.1921C280.582 49.2927 280.603 49.4007 280.603 49.5097C280.603 49.6187 280.582 49.7267 280.54 49.8273C280.498 49.928 280.436 50.0193 280.359 50.0961L245.973 83.1334C245.826 83.2865 245.624 83.3755 245.412 83.3812Z" fill="#D1D3D4"/>
<path d="M22.8766 164.422C28.7816 164.422 33.5686 159.629 33.5686 153.717C33.5686 147.806 28.7816 143.013 22.8766 143.013C16.9715 143.013 12.1846 147.806 12.1846 153.717C12.1846 159.629 16.9715 164.422 22.8766 164.422Z" fill="white"/>
<path d="M22.8764 165.231C20.5921 165.231 18.359 164.553 16.4596 163.282C14.5602 162.012 13.0798 160.206 12.2056 158.093C11.3314 155.98 11.1027 153.655 11.5484 151.412C11.994 149.169 13.094 147.109 14.7093 145.492C16.3246 143.874 18.3826 142.773 20.6231 142.327C22.8636 141.881 25.1859 142.11 27.2964 142.985C29.4069 143.86 31.2108 145.342 32.4799 147.244C33.749 149.145 34.4264 151.381 34.4264 153.668C34.4264 156.735 33.2095 159.676 31.0435 161.844C28.8775 164.013 25.9397 165.231 22.8764 165.231ZM22.8764 143.757C20.9184 143.757 19.0043 144.338 17.3763 145.427C15.7482 146.516 14.4793 148.064 13.73 149.875C12.9807 151.686 12.7847 153.679 13.1666 155.601C13.5486 157.524 14.4915 159.29 15.8761 160.676C17.2606 162.062 19.0246 163.006 20.945 163.389C22.8654 163.771 24.856 163.575 26.665 162.825C28.474 162.074 30.0201 160.804 31.108 159.174C32.1958 157.544 32.7764 155.628 32.7764 153.668C32.7547 151.054 31.702 148.554 29.8478 146.713C27.9935 144.872 25.4878 143.839 22.8764 143.839V143.757Z" fill="#D1D3D4"/>
<path d="M14.0985 56.1254L17.151 66.5156L27.5295 69.5716L17.151 72.6275L14.0985 83.0177L11.046 72.6275L0.66748 69.5716L11.046 66.5156L14.0985 56.1254Z" fill="#D1D3D4"/>
<path d="M167.862 115.113L170.04 122.497L177.432 124.678L170.04 126.842L167.862 134.242L165.701 126.842L158.309 124.678L165.701 122.497L167.862 115.113Z" fill="#D1D3D4"/>
<path d="M42.0826 24.3105L44.2441 31.6944L51.636 33.8748L44.2441 36.0388L42.0826 43.4391L39.9046 36.0388L32.5291 33.8748L39.9046 31.6944L42.0826 24.3105Z" fill="white"/>
<path d="M42.0825 44.265C41.904 44.265 41.7303 44.2071 41.5875 44.0999C41.4446 43.9926 41.3404 43.8419 41.2905 43.6704L39.2445 36.6995L32.298 34.6677C32.1266 34.6177 31.9761 34.5134 31.869 34.3704C31.7618 34.2274 31.704 34.0535 31.704 33.8748C31.7012 33.6954 31.758 33.5202 31.8656 33.3767C31.9731 33.2332 32.1252 33.1295 32.298 33.0819L39.2445 31.0336L41.2905 24.0628C41.3417 23.8833 41.4499 23.7254 41.5987 23.613C41.7476 23.5005 41.929 23.4397 42.1155 23.4397C42.3019 23.4397 42.4833 23.5005 42.6322 23.613C42.781 23.7254 42.8892 23.8833 42.9405 24.0628L44.9865 31.0336L51.9 33.0819C52.0713 33.132 52.2219 33.2363 52.329 33.3793C52.4361 33.5222 52.494 33.6961 52.494 33.8748C52.4914 34.0529 52.4325 34.2255 52.3258 34.368C52.219 34.5104 52.07 34.6154 51.9 34.6677L44.9535 36.6995L42.9075 43.6704C42.8535 43.846 42.7437 43.9992 42.5948 44.1065C42.4458 44.2139 42.2659 44.2695 42.0825 44.265ZM35.4825 33.8748L40.1685 35.2459C40.3023 35.2833 40.4242 35.3547 40.5225 35.4531C40.6208 35.5514 40.692 35.6735 40.7295 35.8075L42.1155 40.4988L43.485 35.8075C43.5264 35.6756 43.5991 35.5557 43.6967 35.4579C43.7944 35.3601 43.9142 35.2874 44.046 35.2459L48.7484 33.8748L44.013 32.4212C43.8798 32.3823 43.7586 32.3105 43.6606 32.2123C43.5625 32.1142 43.4908 31.9928 43.4519 31.8596L42.0825 27.1683L40.6965 31.8596C40.6621 31.9951 40.5919 32.1188 40.4931 32.2176C40.3944 32.3165 40.2708 32.3868 40.1355 32.4212L35.4825 33.8748Z" fill="#D1D3D4"/>
<path d="M144.597 21.4693C146.647 21.4693 148.31 19.8053 148.31 17.7526C148.31 15.7 146.647 14.0359 144.597 14.0359C142.547 14.0359 140.885 15.7 140.885 17.7526C140.885 19.8053 142.547 21.4693 144.597 21.4693Z" fill="#D1D3D4"/>
<path d="M91.6319 49.997C91.6319 49.997 74.9999 54.0276 69.6375 67.1103L91.6319 49.997Z" fill="white"/>
<path d="M69.6376 67.8702C69.5392 67.8859 69.4389 67.8859 69.3406 67.8702C69.1358 67.7859 68.9724 67.6241 68.8859 67.42C68.7994 67.2159 68.7968 66.986 68.8786 66.7799C74.2411 53.565 90.7411 49.4023 91.4341 49.2372C91.6483 49.1871 91.8737 49.223 92.0618 49.3372C92.25 49.4515 92.3859 49.635 92.4406 49.8484C92.4902 50.0608 92.4538 50.2842 92.3394 50.4699C92.2251 50.6556 92.0419 50.7885 91.8301 50.8395C91.6651 50.8395 75.4456 54.9361 70.3801 67.3581C70.3176 67.5052 70.2146 67.6314 70.0831 67.7221C69.9516 67.8128 69.7971 67.8641 69.6376 67.8702Z" fill="#D1D3D4"/>
<path d="M213.319 188.968C207.973 188.968 203.122 184.525 200.433 179.635C197.922 174.738 196.475 169.364 196.185 163.867C195.895 158.369 196.769 152.873 198.75 147.738C202.798 137.51 209.933 128.802 219.16 122.828C219.249 122.765 219.349 122.722 219.454 122.699C219.56 122.676 219.669 122.674 219.775 122.694C219.881 122.714 219.982 122.756 220.072 122.815C220.162 122.875 220.239 122.952 220.299 123.042C220.419 123.227 220.462 123.452 220.419 123.668C220.376 123.884 220.25 124.075 220.068 124.199C211.121 129.979 204.2 138.41 200.268 148.316C198.376 153.233 197.544 158.495 197.829 163.756C198.113 169.017 199.507 174.159 201.918 178.842C204.657 183.798 209.772 188.307 215.118 187.102C215.224 187.077 215.334 187.074 215.441 187.093C215.549 187.111 215.652 187.151 215.744 187.209C215.836 187.267 215.915 187.343 215.978 187.433C216.04 187.522 216.084 187.623 216.108 187.729C216.148 187.941 216.105 188.16 215.988 188.342C215.872 188.523 215.69 188.653 215.481 188.704C214.773 188.878 214.048 188.967 213.319 188.968Z" fill="#231F20"/>
</svg>
